;OM File Header - Saved 2010/01/12 10:36:43
; (6.0 :patc (om-make-point 264 41) (om-make-point 50 50) (om-make-point 998 572) "non documentation" 183)
;End File Header
(in-package :om)(load-lib-for (quote nil))(setf *om-current-persistent* (om-load-patch1 "palimpsesto-flt-help_all" (quote ((om-load-boxcall (quote abstraction) "palimpsesto-flt1" (om-load-patch-abs1 "palimpsesto-flt" (quote ((om-load-boxcomment "comment3" (om-make-point 262 452) (quote "This patch transposes to the note domain the operations of filtering and morphing that we find in the audio domain.$His operating mode is anchored on the idea of palimpsest, and its operation mode can be described as follows: it takes two input MIDI files or chord-seq (a source file and a modulator file) and produces a third MIDI file according to one of two main operation modes (the Method parameter).$The first mode, keeps only the notes from the source file that are equal to the notes of the modulation file, or, in a slight variant possibility, it keeps those notes having the same pitch class. It is thus a resulting hybridization between spectral multiplication and the use of comb filters.$The second mode, rounds all notes from the source file to the nearest notes of the modulation file, or again, in a slight variant possibility, it rounds them to the near pitch class.$The 2009 version is a revised one where a Time Adjust parameter has been added to adjust the length of the two input chord sequences.") "" (om-make-point 2 51) nil (om-make-color 0 0 0) (om-make-font "Verdana" 12 :family "Verdana" :style (quote (:plain)) :mode (quote nil))) (om-load-boxcomment "comment2" (om-make-point 255 98) (quote "Time adjust:$0-No change;$1-Length of Inp-1 set to length of Inp-2;$2 (or else) -Length of Inp-2 set to length of Inp-1.") "" (om-make-point 492 68) nil (om-make-color 0 0 0) (om-make-font "Geneva" 10 :family "Geneva" :style (quote (:plain)) :mode (quote nil))) (om-load-boxcomment "comment" (om-make-point 180 93) (quote "Method:$0-Band pass note;$1-Band pass pitch class;$2-Round to nearest note;$3-Round to nearest pitch class.") "" (om-make-point 572 215) nil (om-make-color 0 0 0) (om-make-font "Geneva" 10 :family "Geneva" :style (quote (:plain)) :mode (quote nil))) (om-load-boxcall (quote abstraction) "mypatch" (om-load-patch-abs1 "TimeAdjustSection" (quote ((om-load-boxout "output2" 2 (om-make-point 217 703) (quote ((om-load-inputfun (quote input-funbox) "out" "out" nil))) "max_onset1" nil) (om-load-boxcall (quote genfun) "LIST-MAX21" (quote list-max) (quote ((om-load-inputfun (quote input-funbox) "a list" "SELF" (list 0 1 2)))) (om-make-point 126 696) nil nil nil nil 1) (om-load-boxcall (quote genfun) "OM-ROUND11" (quote om-round) (quote ((om-load-inputfun (quote input-funbox) "number or tree" "SELF" 1))) (om-make-point 565 581) nil nil nil nil 1) (om-load-boxcall (quote genfun) "OM-ROUND2" (quote om-round) (quote ((om-load-inputfun (quote input-funbox) "number or tree" "SELF" 1))) (om-make-point 521 582) nil nil nil nil 1) (om-load-boxcall (quote genfun) "OM-ROUND1" (quote om-round) (quote ((om-load-inputfun (quote input-funbox) "number or tree" "SELF" 1))) (om-make-point 148 580) nil nil nil nil 1) (om-load-boxcall (quote genfun) "OM-ROUND" (quote om-round) (quote ((om-load-inputfun (quote input-funbox) "number or tree" "SELF" 1))) (om-make-point 104 581) nil nil nil nil 1) (om-load-boxcall (quote genfun) "OMIF1211" (quote omif) (quote ((om-load-inputfun (quote input-funbox) "if" "TEST" nil) (om-load-inputfun (quote input-funbox) "then" "ACTION" nil) (om-load-inputfun (quote input-funbox) "else" "ELSE" nil))) (om-make-point 544 438) nil nil nil nil 1) (om-load-boxcall (quote genfun) "OMIF111" (quote omif) (quote ((om-load-inputfun (quote input-funbox) "if" "TEST" nil) (om-load-inputfun (quote input-funbox) "then" "ACTION" nil) (om-load-inputfun (quote input-funbox) "else" "ELSE" nil))) (om-make-point 502 439) nil nil nil nil 1) (om-load-boxcall (quote genfun) "OM*11" (quote om*) (quote ((om-load-inputfun (quote input-funbox) "first input" "SELF" 0) (om-load-inputfun (quote input-funbox) "second input" "NUM" 0))) (om-make-point 558 341) nil nil nil nil 1) (om-load-boxcall (quote genfun) "OM*2" (quote om*) (quote ((om-load-inputfun (quote input-funbox) "first input" "SELF" 0) (om-load-inputfun (quote input-funbox) "second input" "NUM" 0))) (om-make-point 507 363) (om-make-point 33 35) nil nil nil 1) (om-load-boxcall (quote genfun) "OM=11" (quote om=) (quote ((om-load-inputfun (quote input-funbox) "a number" "SELF" 0) (om-load-inputfun (quote input-funbox) "a number" "NUM" 1))) (om-make-point 766 125) nil nil nil nil 1) (om-load-boxcall (quote genfun) "OM/1" (quote om/) (quote ((om-load-inputfun (quote input-funbox) "number or tree" "SELF" 1) (om-load-inputfun (quote input-funbox) "number or tree" "NUM" 1))) (om-make-point 555 248) nil nil nil nil 1) (om-load-boxcall (quote genfun) "LIST-MAX2" (quote list-max) (quote ((om-load-inputfun (quote input-funbox) "a list" "SELF" (list 0 1 2)))) (om-make-point 430 243) nil nil nil nil 1) (om-load-boxcall (quote genfun) "OMIF122" (quote omif) (quote ((om-load-inputfun (quote input-funbox) "if" "TEST" nil) (om-load-inputfun (quote input-funbox) "then" "ACTION" nil) (om-load-inputfun (quote input-funbox) "else" "ELSE" nil))) (om-make-point 556 511) nil nil nil nil 1) (om-load-boxcall (quote genfun) "OMIF13" (quote omif) (quote ((om-load-inputfun (quote input-funbox) "if" "TEST" nil) (om-load-inputfun (quote input-funbox) "then" "ACTION" nil) (om-load-inputfun (quote input-funbox) "else" "ELSE" nil))) (om-make-point 516 513) nil nil nil nil 1) (om-load-editor-box1 "CHORD-SEQ2" (quote chord-seq) (quote ((om-load-inputfun (quote input-funbox) "objs" "SELF" nil) (om-load-inputfun (quote input-funbox) "no documentation" "LMIDIC" (list 6000)) (om-load-inputfun (quote input-funbox) "no documentation" "LONSET" (list 0 1000)) (om-load-inputfun (quote input-funbox) "no documentation" "LDUR" (list 1000)) (om-load-inputfun (quote input-funbox) "no documentation" "LVEL" (list 100)) (om-load-inputfun (quote input-funbox) "no documentation" "LOFFSET" (list 0)) (om-load-inputfun (quote input-funbox) "no documentation" "LCHAN" (list 1)) (om-load-inputfun (quote input-funbox) "no documentation" "LEGATO" 0))) (om-make-point 414 177) (om-make-point 314 53) (let ((newobj (when (find-class (quote chord-seq) nil) (make-instance (quote chord-seq) :lmidic (quote ((6000))) :lonset (quote (0 1000)) :ldur (quote ((1000))) :lvel (quote ((100))) :loffset (quote ((0))) :lchan (quote ((1))) :legato 0)))) (load-port-info newobj (quote ((0)))) (init-mus-color newobj (quote nil)) (set-extra-pairs newobj (quote nil)) (set-patch-pairs newobj (quote nil)) (set-tonalite newobj nil) newobj) nil nil (pairlis (quote (palette-mode scale show-stems obj-mode score-mode winpos winsize mode grillestep notechancolor? zoom inport outport deltapict cmnpref staff fontsize approx)) (list 0 nil (quote t) 1 0 (om-make-point 400 20) (om-make-point 370 280) 0 1000 nil 1 0 0 (om-make-point 0 0) (let ((newobj (make-instance (quote edition-values)))) (setf (paper-size newobj) (om-make-point 600 800)) (setf (top-margin newobj) 2) (setf (left-margin newobj) 1) (setf (right-margin newobj) 1) (setf (bottom-margin newobj) 1) (setf (orientation newobj) nil) (setf (scale newobj) nil) (setf (system-space newobj) (quote (1))) (setf (line-space newobj) 1) (setf (title newobj) nil) (setf (show-title? newobj) nil) (setf (show-page? newobj) nil) (setf (sheet-id newobj) nil) (setf (page-mode newobj) nil) newobj) (quote g) 24 2)) nil nil nil) (om-load-editor-box1 "CHORD-SEQ1" (quote chord-seq) (quote ((om-load-inputfun (quote input-funbox) "objs" "SELF" nil) (om-load-inputfun (quote input-funbox) "no documentation" "LMIDIC" (list 6000)) (om-load-inputfun (quote input-funbox) "no documentation" "LONSET" (list 0 1000)) (om-load-inputfun (quote input-funbox) "no documentation" "LDUR" (list 1000)) (om-load-inputfun (quote input-funbox) "no documentation" "LVEL" (list 100)) (om-load-inputfun (quote input-funbox) "no documentation" "LOFFSET" (list 0)) (om-load-inputfun (quote input-funbox) "no documentation" "LCHAN" (list 1)) (om-load-inputfun (quote input-funbox) "no documentation" "LEGATO" 0))) (om-make-point 437 645) (om-make-point 308 50) (let ((newobj (when (find-class (quote chord-seq) nil) (make-instance (quote chord-seq) :lmidic (quote ((6000))) :lonset (quote (0 1000)) :ldur (quote ((1000))) :lvel (quote ((100))) :loffset (quote ((0))) :lchan (quote ((1))) :legato 0)))) (load-port-info newobj (quote ((0)))) (init-mus-color newobj (quote nil)) (set-extra-pairs newobj (quote nil)) (set-patch-pairs newobj (quote nil)) (set-tonalite newobj nil) newobj) nil nil (pairlis (quote (palette-mode scale show-stems obj-mode score-mode winpos winsize mode grillestep notechancolor? zoom inport outport deltapict cmnpref staff fontsize approx)) (list 0 nil (quote t) 1 0 (om-make-point 400 20) (om-make-point 370 280) 0 1000 nil 1 0 0 (om-make-point 0 0) (let ((newobj (make-instance (quote edition-values)))) (setf (paper-size newobj) (om-make-point 600 800)) (setf (top-margin newobj) 2) (setf (left-margin newobj) 1) (setf (right-margin newobj) 1) (setf (bottom-margin newobj) 1) (setf (orientation newobj) nil) (setf (scale newobj) nil) (setf (system-space newobj) (quote (1))) (setf (line-space newobj) 1) (setf (title newobj) nil) (setf (show-title? newobj) nil) (setf (show-page? newobj) nil) (setf (sheet-id newobj) nil) (setf (page-mode newobj) nil) newobj) (quote g) 24 2)) nil nil nil) (om-load-boxcall (quote genfun) "OMIF121" (quote omif) (quote ((om-load-inputfun (quote input-funbox) "if" "TEST" nil) (om-load-inputfun (quote input-funbox) "then" "ACTION" nil) (om-load-inputfun (quote input-funbox) "else" "ELSE" nil))) (om-make-point 152 439) nil nil nil nil 1) (om-load-boxcall (quote genfun) "OMIF11" (quote omif) (quote ((om-load-inputfun (quote input-funbox) "if" "TEST" nil) (om-load-inputfun (quote input-funbox) "then" "ACTION" nil) (om-load-inputfun (quote input-funbox) "else" "ELSE" nil))) (om-make-point 121 439) nil nil nil nil 1) (om-load-boxcall (quote genfun) "OM*1" (quote om*) (quote ((om-load-inputfun (quote input-funbox) "first input" "SELF" 0) (om-load-inputfun (quote input-funbox) "second input" "NUM" 0))) (om-make-point 166 342) nil nil nil nil 1) (om-load-boxcall (quote genfun) "OM*" (quote om*) (quote ((om-load-inputfun (quote input-funbox) "first input" "SELF" 0) (om-load-inputfun (quote input-funbox) "second input" "NUM" 0))) (om-make-point 106 341) (om-make-point 33 35) nil nil nil 1) (om-load-boxcall (quote genfun) "OM=1" (quote om=) (quote ((om-load-inputfun (quote input-funbox) "a number" "SELF" 0) (om-load-inputfun (quote input-funbox) "a number" "NUM" 1))) (om-make-point 374 126) nil nil nil nil 1) (om-load-boxcall (quote genfun) "OM/" (quote om/) (quote ((om-load-inputfun (quote input-funbox) "number or tree" "SELF" 1) (om-load-inputfun (quote input-funbox) "number or tree" "NUM" 1))) (om-make-point 233 258) nil nil nil nil 1) (om-load-boxcall (quote genfun) "LIST-MAX" (quote list-max) (quote ((om-load-inputfun (quote input-funbox) "a list" "SELF" (list 0 1 2)))) (om-make-point 315 222) nil nil nil nil 1) (om-load-boxcall (quote genfun) "OMIF12" (quote omif) (quote ((om-load-inputfun (quote input-funbox) "if" "TEST" nil) (om-load-inputfun (quote input-funbox) "then" "ACTION" nil) (om-load-inputfun (quote input-funbox) "else" "ELSE" nil))) (om-make-point 164 512) nil nil nil nil 1) (om-load-boxcall (quote genfun) "OM=" (quote om=) (quote ((om-load-inputfun (quote input-funbox) "a number" "SELF" 0) (om-load-inputfun (quote input-funbox) "a number" "NUM" 0))) (om-make-point 146 23) nil nil nil nil 1) (om-load-boxcall (quote genfun) "OMIF1" (quote omif) (quote ((om-load-inputfun (quote input-funbox) "if" "TEST" nil) (om-load-inputfun (quote input-funbox) "then" "ACTION" nil) (om-load-inputfun (quote input-funbox) "else" "ELSE" nil))) (om-make-point 124 514) nil nil nil nil 1) (om-load-boxcall (quote genfun) "OMIF" (quote omif) (quote ((om-load-inputfun (quote input-funbox) "if" "TEST" nil) (om-load-inputfun (quote input-funbox) "then" "ACTION" nil) (om-load-inputfun (quote input-funbox) "else" "ELSE" 0))) (om-make-point 471 56) nil nil nil nil 1) (om-load-editor-box1 "CHORD-SEQ" (quote chord-seq) (quote ((om-load-inputfun (quote input-funbox) "objs" "SELF" nil) (om-load-inputfun (quote input-funbox) "no documentation" "LMIDIC" (list 6000)) (om-load-inputfun (quote input-funbox) "no documentation" "LONSET" (list 0 1000)) (om-load-inputfun (quote input-funbox) "no documentation" "LDUR" (list 1000)) (om-load-inputfun (quote input-funbox) "no documentation" "LVEL" (list 100)) (om-load-inputfun (quote input-funbox) "no documentation" "LOFFSET" (list 0)) (om-load-inputfun (quote input-funbox) "no documentation" "LCHAN" (list 1)) (om-load-inputfun (quote input-funbox) "no documentation" "LEGATO" 0))) (om-make-point 14 170) (om-make-point 314 53) (let ((newobj (when (find-class (quote chord-seq) nil) (make-instance (quote chord-seq) :lmidic (quote ((6000))) :lonset (quote (0 1000)) :ldur (quote ((1000))) :lvel (quote ((100))) :loffset (quote ((0))) :lchan (quote ((1))) :legato 0)))) (load-port-info newobj (quote ((0)))) (init-mus-color newobj (quote nil)) (set-extra-pairs newobj (quote nil)) (set-patch-pairs newobj (quote nil)) (set-tonalite newobj nil) newobj) nil nil (pairlis (quote (palette-mode scale show-stems obj-mode score-mode winpos winsize mode grillestep notechancolor? zoom inport outport deltapict cmnpref staff fontsize approx)) (list 0 nil (quote t) 1 0 (om-make-point 400 20) (om-make-point 370 280) 0 1000 nil 1 0 0 (om-make-point 0 0) (let ((newobj (make-instance (quote edition-values)))) (setf (paper-size newobj) (om-make-point 600 800)) (setf (top-margin newobj) 2) (setf (left-margin newobj) 1) (setf (right-margin newobj) 1) (setf (bottom-margin newobj) 1) (setf (orientation newobj) nil) (setf (scale newobj) nil) (setf (system-space newobj) (quote (1))) (setf (line-space newobj) 1) (setf (title newobj) nil) (setf (show-title? newobj) nil) (setf (show-page? newobj) nil) (setf (sheet-id newobj) nil) (setf (page-mode newobj) nil) newobj) (quote g) 24 2)) nil nil nil) (om-load-editor-box1 "CHORD-SEQ" (quote chord-seq) (quote ((om-load-inputfun (quote input-funbox) "objs" "SELF" nil) (om-load-inputfun (quote input-funbox) "no documentation" "LMIDIC" (list 6000)) (om-load-inputfun (quote input-funbox) "no documentation" "LONSET" (list 0 1000)) (om-load-inputfun (quote input-funbox) "no documentation" "LDUR" (list 1000)) (om-load-inputfun (quote input-funbox) "no documentation" "LVEL" (list 100)) (om-load-inputfun (quote input-funbox) "no documentation" "LOFFSET" (list 0)) (om-load-inputfun (quote input-funbox) "no documentation" "LCHAN" (list 1)) (om-load-inputfun (quote input-funbox) "no documentation" "LEGATO" 0))) (om-make-point 30 640) (om-make-point 308 50) (let ((newobj (when (find-class (quote chord-seq) nil) (make-instance (quote chord-seq) :lmidic (quote ((6000))) :lonset (quote (0 1000)) :ldur (quote ((1000))) :lvel (quote ((100))) :loffset (quote ((0))) :lchan (quote ((1))) :legato 0)))) (load-port-info newobj (quote ((0)))) (init-mus-color newobj (quote nil)) (set-extra-pairs newobj (quote nil)) (set-patch-pairs newobj (quote nil)) (set-tonalite newobj nil) newobj) nil nil (pairlis (quote (palette-mode scale show-stems obj-mode score-mode winpos winsize mode grillestep notechancolor? zoom inport outport deltapict cmnpref staff fontsize approx)) (list 0 nil (quote t) 1 0 (om-make-point 400 20) (om-make-point 370 280) 0 1000 nil 1 0 0 (om-make-point 0 0) (let ((newobj (make-instance (quote edition-values)))) (setf (paper-size newobj) (om-make-point 600 800)) (setf (top-margin newobj) 2) (setf (left-margin newobj) 1) (setf (right-margin newobj) 1) (setf (bottom-margin newobj) 1) (setf (orientation newobj) nil) (setf (scale newobj) nil) (setf (system-space newobj) (quote (1))) (setf (line-space newobj) 1) (setf (title newobj) nil) (setf (show-title? newobj) nil) (setf (show-page? newobj) nil) (setf (sheet-id newobj) nil) (setf (page-mode newobj) nil) newobj) (quote g) 24 2)) nil nil nil) (om-load-boxout "output1" 1 (om-make-point 444 693) (quote ((om-load-inputfun (quote input-funbox) "out" "out" nil))) "seq2" nil) (om-load-boxout "output" 0 (om-make-point 37 693) (quote ((om-load-inputfun (quote input-funbox) "out" "out" nil))) "seq1" nil) (om-load-boxin "input2" 2 (om-make-point 669 34) "no documentation" "timeadjust" nil nil) (om-load-boxin "input1" 1 (om-make-point 333 49) "no documentation" "input-2" nil nil) (om-load-boxin "input" 0 (om-make-point 5 45) "no documentation" "input-1" nil nil))) (quote ((1 0 0 0 nil 0) (29 2 1 0 nil 0) (13 0 2 0 nil 0) (14 0 3 0 nil 0) (24 0 4 0 nil 0) (26 0 5 0 nil 0) (10 0 6 0 nil 0) (15 3 6 1 nil 0) (8 0 6 2 nil 0) (10 0 7 0 nil 0) (15 2 7 1 nil 0) (9 0 7 2 nil 0) (15 3 8 0 nil 0) (11 0 8 1 nil 0) (15 2 9 0 nil 0) (11 0 9 1 nil 0) (27 0 10 0 nil 0) (23 0 11 0 nil 2) (12 0 11 1 nil 3) (15 2 12 0 nil 0) (15 3 13 1 nil 0) (6 0 13 2 nil 0) (15 2 14 1 nil 0) (7 0 14 2 nil 0) (33 0 15 0 nil 3) (15 1 16 1 nil 0) (3 0 16 2 nil 0) (2 0 16 3 nil 0) (15 4 16 4 nil 0) (15 5 16 5 nil 0) (15 6 16 6 nil 0) (15 7 16 7 nil 0) (21 0 17 0 nil 0) (19 0 17 1 nil 0) (28 3 17 2 nil 0) (21 0 18 0 nil 0) (20 0 18 1 nil 0) (28 2 18 2 nil 0) (28 3 19 0 nil 0) (22 0 19 1 nil 0) (28 2 20 0 nil 0) (22 0 20 1 nil 0) (27 0 21 0 nil 0) (12 0 22 0 nil 3) (23 0 22 1 nil 2) (28 2 23 0 nil 0) (25 0 24 0 nil 0) (28 3 24 1 nil 0) (17 0 24 2 nil 0) (27 0 25 0 nil 0) (25 0 26 0 nil 0) (28 2 26 1 nil 0) (18 0 26 2 nil 0) (32 0 27 0 nil 0) (32 0 27 1 nil 0) (34 0 28 0 nil 0) (28 1 29 1 nil 0) (5 0 29 2 nil 0) (4 0 29 3 nil 0) (28 4 29 4 nil 0) (28 5 29 5 nil 0) (28 6 29 6 nil 0) (28 7 29 7 nil 0) (16 0 30 0 nil 0) (29 0 31 0 nil 0))) 6.0 nil) (quote ((om-load-inputfun (quote input-funbox) "no documentation" "input-1" nil) (om-load-inputfun (quote input-funbox) "no documentation" "input-2" nil) (om-load-inputfun (quote input-funbox) "no documentation" "timeadjust" nil))) (om-make-point 323 166) nil nil "&" "TimeAdjustSection") (om-load-boxcomment "comment1" (om-make-point 156 64) (quote "António de Sousa Dias$www.sousadias.com$2003, rev. 2008-2009") "" (om-make-point 7 600) nil (om-make-color 0.018735297 0.025613498 0.51131225) (om-make-font "Verdana" 12 :family "Verdana" :style (quote (:plain)) :mode (quote nil))) (om-load-editor-box1 "CHORD-SEQ111" (quote chord-seq) (quote ((om-load-inputfun (quote input-funbox) "objs" "SELF" nil) (om-load-inputfun (quote input-funbox) "no documentation" "LMIDIC" (list 6000)) (om-load-inputfun (quote input-funbox) "no documentation" "LONSET" (list 0 1000)) (om-load-inputfun (quote input-funbox) "no documentation" "LDUR" (list 1000)) (om-load-inputfun (quote input-funbox) "no documentation" "LVEL" (list 100)) (om-load-inputfun (quote input-funbox) "no documentation" "LOFFSET" (list 0)) (om-load-inputfun (quote input-funbox) "no documentation" "LCHAN" (list 1)) (om-load-inputfun (quote input-funbox) "no documentation" "LEGATO" 0))) (om-make-point 279 510) (om-make-point 204 120) (let ((newobj (when (find-class (quote chord-seq) nil) (make-instance (quote chord-seq) :lmidic (quote ((6200) (5900 6500 6800 7400 8200 8800) (6300) (3700 7600 8800))) :lonset (quote (0 2000 4000 6000 8000)) :ldur (quote ((2000) (2000 2000 2000 2000 2000 2000) (2000) (2000 2000 2000))) :lvel (quote ((100) (100 100 100 100 100 100) (100) (100 100 100))) :loffset (quote ((0) (0 0 0 0 0 0) (0) (0 0 0))) :lchan (quote ((1) (1 1 1 1 1 1) (1) (1 1 1))) :legato 0)))) (load-port-info newobj (quote ((0) (0 0 0 0 0 0) (0) (0 0 0)))) (init-mus-color newobj (quote nil)) (set-extra-pairs newobj (quote nil)) (set-patch-pairs newobj (quote ((nil (om-load-patch-abs1 "patch" (quote nil) (quote nil) 6.0 nil))))) (set-tonalite newobj nil) newobj) nil nil (pairlis (quote (approx fontsize staff cmnpref deltapict outport inport zoom notechancolor? grillestep mode winsize winpos palette-mode obj-mode show-stems scale)) (list 2 24 (quote ggff) (let ((newobj (make-instance (quote edition-values)))) (setf (paper-size newobj) (om-make-point 600 800)) (setf (top-margin newobj) 2) (setf (left-margin newobj) 1) (setf (right-margin newobj) 1) (setf (bottom-margin newobj) 1) (setf (orientation newobj) nil) (setf (scale newobj) nil) (setf (system-space newobj) (quote (1))) (setf (line-space newobj) 1) (setf (title newobj) nil) (setf (show-title? newobj) nil) (setf (show-page? newobj) nil) (setf (sheet-id newobj) nil) (setf (page-mode newobj) nil) newobj) (om-make-point 0 0) 0 0 1 nil 1000 0 (om-make-point 887 433) (om-make-point 10 40) 0 0 (quote t) nil)) t nil nil) (om-load-boxin "input3" 3 (om-make-point 526 237) "no documentation" "Method" nil nil) (om-load-boxcall (quote genfun) "MAT-TRANS" (quote mat-trans) (quote ((om-load-inputfun (quote input-funbox) "the list" "MATRIX" nil))) (om-make-point 499 444) nil nil "&" nil 1) (om-load-boxcall (quote abstraction) "mypatch1" (om-load-patch-abs1 "distribute-lists" (quote ((om-load-boxout "output4" 4 (om-make-point 326 297) (quote ((om-load-inputfun (quote input-funbox) "out" "out" nil))) nil nil) (om-load-boxout "output3" 3 (om-make-point 226 290) (quote ((om-load-inputfun (quote input-funbox) "out" "out" nil))) nil nil) (om-load-boxcall (quote lispfun) "NTH11" (quote nth) (quote ((om-load-inputfun (quote input-funbox) "N" "N" 4) (om-load-inputfun (quote input-funbox) "LIST" "LIST" nil))) (om-make-point 261 213) nil nil nil nil 1) (om-load-boxcall (quote lispfun) "NTH1" (quote nth) (quote ((om-load-inputfun (quote input-funbox) "N" "N" 3) (om-load-inputfun (quote input-funbox) "LIST" "LIST" nil))) (om-make-point 201 213) nil nil nil nil 1) (om-load-boxcall (quote lispfun) "NTH" (quote nth) (quote ((om-load-inputfun (quote input-funbox) "N" "N" 0) (om-load-inputfun (quote input-funbox) "LIST" "LIST" nil))) (om-make-point 64 220) nil nil nil nil 1) (om-load-boxcall (quote lispfun) "NTH" (quote nth) (quote ((om-load-inputfun (quote input-funbox) "N" "N" 1) (om-load-inputfun (quote input-funbox) "LIST" "LIST" nil))) (om-make-point 108 218) nil nil nil nil 1) (om-load-boxcall (quote lispfun) "NTH" (quote nth) (quote ((om-load-inputfun (quote input-funbox) "N" "N" 2) (om-load-inputfun (quote input-funbox) "LIST" "LIST" nil))) (om-make-point 149 216) nil nil nil nil 1) (om-load-boxout "output2" 2 (om-make-point 152 281) (quote ((om-load-inputfun (quote input-funbox) "out" "out" nil))) nil nil) (om-load-boxout "output1" 1 (om-make-point 102 281) (quote ((om-load-inputfun (quote input-funbox) "out" "out" nil))) nil nil) (om-load-boxout "output" 0 (om-make-point 52 281) (quote ((om-load-inputfun (quote input-funbox) "out" "out" nil))) nil nil) (om-load-boxin "input" 0 (om-make-point 109 114) "no documentation" nil nil nil))) (quote ((2 0 0 0 nil 0) (3 0 1 0 nil 0) (10 0 2 1 nil 0) (10 0 3 1 nil 0) (10 0 4 1 nil 0) (10 0 5 1 nil 0) (10 0 6 1 nil 0) (6 0 7 0 nil 0) (5 0 8 0 nil 0) (4 0 9 0 nil 0))) 6.0 nil) (quote ((om-load-inputfun (quote input-funbox) "no documentation" "input" nil))) (om-make-point 299 443) (om-make-point 147 66) nil "&" "distribute-lists") (om-load-boxwithed1 (quote box-with-win) "OMLOOP" (quote omloop) (quote ((om-load-inputfun (quote input-funbox) "aditional input" "OPLIST" nil) (om-load-inputfun (quote input-funbox) "aditional input" "OPLIST" nil) (om-load-inputfun (quote input-funbox) "aditional input" "OPLIST" nil) (om-load-inputfun (quote input-funbox) "aditional input" "OPLIST" nil))) (om-make-point 223 367) (om-make-point 425 53) nil "&" (list (om-load-boxcall (quote genfun) "OMIF" (quote omif) (quote ((om-load-inputfun (quote input-funbox) "if" "TEST" nil) (om-load-inputfun (quote input-funbox) "then" "ACTION" nil))) (om-make-point 11 559) nil nil nil nil 1) (om-load-boxcall (quote abstraction) "mypatch" (om-load-patch-abs1 "onset_test" (quote ((om-load-boxcall (quote genfun) "OM<" (quote om<) (quote ((om-load-inputfun (quote input-funbox) "a number" "SELF" 0) (om-load-inputfun (quote input-funbox) "a number" "NUM" 1))) (om-make-point 51 281) (om-make-point 28 35) nil nil nil 1) (om-load-boxcall (quote bastype) "aux11" (quote t) (quote nil) (om-make-point 115 294) (om-make-point 19 28) nil "nil" nil) (om-load-boxcall (quote bastype) "aux2" (quote t) (quote nil) (om-make-point 88 294) (om-make-point 10 28) (quote t) "t" nil) (om-load-boxcall (quote genfun) "OMIF2" (quote omif) (quote ((om-load-inputfun (quote input-funbox) "if" "TEST" nil) (om-load-inputfun (quote input-funbox) "then" "ACTION" (quote t)) (om-load-inputfun (quote input-funbox) "else" "ELSE" nil))) (om-make-point 55 328) (om-make-point 75 58) nil nil nil 1) (om-load-boxcall (quote bastype) "aux1" (quote t) (quote nil) (om-make-point 86 405) (om-make-point 19 28) nil "nil" nil) (om-load-boxcall (quote genfun) "OMIF1" (quote omif) (quote ((om-load-inputfun (quote input-funbox) "if" "TEST" nil) (om-load-inputfun (quote input-funbox) "then" "ACTION" (quote t)) (om-load-inputfun (quote input-funbox) "else" "ELSE" nil))) (om-make-point 211 176) (om-make-point 88 58) nil nil nil 1) (om-load-boxcall (quote genfun) "OM>" (quote om>) (quote ((om-load-inputfun (quote input-funbox) "a number" "SELF" 0) (om-load-inputfun (quote input-funbox) "a number" "NUM" 1))) (om-make-point 34 137) (om-make-point 38 35) nil nil nil 1) (om-load-boxcall (quote genfun) "OMIF" (quote omif) (quote ((om-load-inputfun (quote input-funbox) "if" "TEST" nil) (om-load-inputfun (quote input-funbox) "then" "ACTION" (quote t)) (om-load-inputfun (quote input-funbox) "else" "ELSE" nil))) (om-make-point 26 439) (om-make-point 75 58) nil nil nil 1) (om-load-boxcall (quote genfun) "LIST-MAX" (quote list-max) (quote ((om-load-inputfun (quote input-funbox) "a list" "SELF" (list 0 1 2)))) (om-make-point 312 26) nil nil nil nil 1) (om-load-boxcall (quote genfun) "OM+" (quote om+) (quote ((om-load-inputfun (quote input-funbox) "first input" "SELF" 0) (om-load-inputfun (quote input-funbox) "second input" "NUM" 0))) (om-make-point 188 92) (om-make-point 57 35) nil nil nil 1) (om-load-boxout "output2" 2 (om-make-point 231 269) (quote ((om-load-inputfun (quote input-funbox) "out" "out" nil))) nil nil) (om-load-boxout "output1" 1 (om-make-point 175 470) (quote ((om-load-inputfun (quote input-funbox) "out" "out" nil))) nil nil) (om-load-boxout "output" 0 (om-make-point 21 496) (quote ((om-load-inputfun (quote input-funbox) "out" "out" nil))) "do_computation" nil) (om-load-boxin "input2" 2 (om-make-point 268 13) "no documentation" "ldur" nil nil) (om-load-boxin "input1" 1 (om-make-point 154 19) "no documentation" "onset" nil nil) (om-load-boxin "input" 0 (om-make-point 13 30) "no documentation" "higher onset1" nil nil))) (quote ((14 0 0 0 nil 2) (5 0 0 1 nil 0) (0 0 3 0 nil 0) (2 0 3 1 nil 0) (1 0 3 2 nil 0) (6 0 5 0 nil 0) (9 0 5 1 nil 0) (15 0 5 2 nil 3) (15 0 6 0 nil 3) (9 0 6 1 nil 0) (6 0 7 0 nil 0) (3 0 7 1 nil 0) (4 0 7 2 nil 0) (13 0 8 0 nil 0) (14 0 9 0 nil 0) (8 0 9 1 nil 0) (5 0 10 0 nil 0) (14 0 11 0 nil 2) (7 0 12 0 nil 0))) 6.0 nil) (quote ((om-load-inputfun (quote input-funbox) "no documentation" "input" nil) (om-load-inputfun (quote input-funbox) "no documentation" "input1" nil) (om-load-inputfun (quote input-funbox) "no documentation" "input2" nil))) (om-make-point 150 168) nil nil nil "onset_test") (om-load-boxin "input3" 3 (om-make-point 387 131) "Method" "Method" 0 nil) (om-load-boxcall (quote lispfun) "REMOVE1" (quote remove) (quote ((om-load-inputfun (quote input-funbox) "ITEM" "ITEM" (quote t)) (om-load-inputfun (quote input-funbox) "SEQUENCE" "SEQUENCE" nil))) (om-make-point 237 623) nil nil nil nil 1) (om-load-boxcall (quote lispfun) "REMOVE" (quote remove) (quote ((om-load-inputfun (quote input-funbox) "ITEM" "ITEM" nil) (om-load-inputfun (quote input-funbox) "SEQUENCE" "SEQUENCE" nil))) (om-make-point 171 626) nil nil nil nil 1) (om-load-boxcomment "comment" (om-make-point 180 93) (quote "Method:$0-Band pass note;$1-Band pass pitch class;$2-Round to nearest note;$3-Round to nearest pitch class.") "" (om-make-point 419 198) nil (om-make-color 0 0 0) (om-make-font "Geneva" 10 :family "Geneva" :style (quote (:plain)) :mode (quote nil))) (om-load-boxwithed1 (quote box-with-win) "OMLOOP1" (quote omloop) (quote ((om-load-inputfun (quote input-funbox) "aditional input" "OPLIST" nil) (om-load-inputfun (quote input-funbox) "aditional input" "OPLIST" nil) (om-load-inputfun (quote input-funbox) "aditional input" "OPLIST" nil))) (om-make-point 105 415) nil nil nil (list (om-load-boxcall (quote abstraction) "mypatch21" (om-load-patch-abs1 "method-3" (quote ((om-load-boxwithed1 (quote box-with-win) "OMLOOP" (quote omloop) (quote ((om-load-inputfun (quote input-funbox) "aditional input" "OPLIST" nil) (om-load-inputfun (quote input-funbox) "aditional input" "OPLIST" nil))) (om-make-point 90 252) nil nil nil (list (om-load-boxcall (quote lispfun) "CAR1" (quote car) (quote ((om-load-inputfun (quote input-funbox) "X" "X" nil))) (om-make-point 482 424) nil nil nil nil 1) (om-load-boxcall (quote lispfun) "CAR" (quote car) (quote ((om-load-inputfun (quote input-funbox) "X" "X" nil))) (om-make-point 330 412) nil nil nil nil 1) (om-load-boxcall (quote lispfun) "NTH" (quote nth) (quote ((om-load-inputfun (quote input-funbox) "ORIG-N" "ORIG-N" 1) (om-load-inputfun (quote input-funbox) "ORIG-LIST" "ORIG-LIST" nil))) (om-make-point 485 491) nil nil nil nil 1) (om-load-boxcall (quote genfun) "SORT.1" (quote sort.) (quote ((om-load-inputfun (quote input-funbox) "the list" "LST" nil) (om-load-inputfun (quote input-funbox) "test" "TEST" (quote <)) (om-load-inputfun (quote input-funbox) "key" "KEY" (quote first)))) (om-make-point 500 328) nil nil nil nil 1) (om-load-boxcall (quote genfun) "SORT." (quote sort.) (quote ((om-load-inputfun (quote input-funbox) "the list" "LST" nil) (om-load-inputfun (quote input-funbox) "test" "TEST" (quote <)) (om-load-inputfun (quote input-funbox) "key" "KEY" (quote first)))) (om-make-point 397 313) nil nil nil nil 1) (om-load-boxcall (quote genfun) "MAT-TRANS" (quote mat-trans) (quote ((om-load-inputfun (quote input-funbox) "the list" "MATRIX" nil))) (om-make-point 172 424) nil nil nil nil 1) (om-load-boxcall (quote genfun) "OM-ABS" (quote om-abs) (quote ((om-load-inputfun (quote input-funbox) "number or tree" "SELF" 1))) (om-make-point 59 334) nil nil nil nil 1) (om-load-boxcall (quote abstraction) "mypatch" (om-load-patch-abs1 "setSpaceSearch" (quote ((om-load-boxcall (quote genfun) "OM*1" (quote om*) (quote ((om-load-inputfun (quote input-funbox) "first input" "SELF" 0) (om-load-inputfun (quote input-funbox) "second input" "NUM" 100))) (om-make-point 322 395) nil nil nil nil 1) (om-load-boxout "output1" 1 (om-make-point 351 442) (quote ((om-load-inputfun (quote input-funbox) "out" "out" nil))) nil nil) (om-load-boxcall (quote genfun) "OM/1" (quote om/) (quote ((om-load-inputfun (quote input-funbox) "number or tree" "SELF" 1) (om-load-inputfun (quote input-funbox) "number or tree" "NUM" 100))) (om-make-point 193 130) nil nil nil nil 1) (om-load-boxcall (quote genfun) "OM-ROUND1" (quote om-round) (quote ((om-load-inputfun (quote input-funbox) "number or tree" "SELF" 1))) (om-make-point 235 124) nil nil nil nil 1) (om-load-boxcall (quote genfun) "OM//1" (quote om//) (quote ((om-load-inputfun (quote input-funbox) "number or tree" "SELF" 1) (om-load-inputfun (quote input-funbox) "number or tree" "DIVISOR" 12))) (om-make-point 311 128) nil nil nil nil 2) (om-load-boxcall (quote genfun) "OM*" (quote om*) (quote ((om-load-inputfun (quote input-funbox) "first input" "SELF" 0) (om-load-inputfun (quote input-funbox) "second input" "NUM" 12))) (om-make-point 122 193) nil nil nil nil 1) (om-load-boxcall (quote genfun) "X-APPEND" (quote x-append) (quote ((om-load-inputfun (quote input-funbox) "first list" "L1?" nil) (om-load-inputfun (quote input-funbox) "second list" "L2?" nil) (om-load-inputfun (quote input-funbox) "add list" "LST?" nil))) (om-make-point 196 323) (om-make-point 166 58) nil nil nil 1) (om-load-boxcall (quote genfun) "OM+" (quote om+) (quote ((om-load-inputfun (quote input-funbox) "first input" "SELF" 0) (om-load-inputfun (quote input-funbox) "second input" "NUM" 0))) (om-make-point 269 268) nil nil nil nil 1) (om-load-boxcall (quote genfun) "OM+1" (quote om+) (quote ((om-load-inputfun (quote input-funbox) "first input" "SELF" 0) (om-load-inputfun (quote input-funbox) "second input" "NUM" -12))) (om-make-point 196 256) nil nil nil nil 1) (om-load-boxcall (quote genfun) "OM+2" (quote om+) (quote ((om-load-inputfun (quote input-funbox) "first input" "SELF" 0) (om-load-inputfun (quote input-funbox) "second input" "NUM" 0))) (om-make-point 227 285) nil nil nil nil 1) (om-load-boxcall (quote genfun) "OM+11" (quote om+) (quote ((om-load-inputfun (quote input-funbox) "first input" "SELF" 0) (om-load-inputfun (quote input-funbox) "second input" "NUM" 12))) (om-make-point 304 247) nil nil nil nil 1) (om-load-boxcall (quote genfun) "OM+21" (quote om+) (quote ((om-load-inputfun (quote input-funbox) "first input" "SELF" 0) (om-load-inputfun (quote input-funbox) "second input" "NUM" 0))) (om-make-point 335 276) nil nil nil nil 1) (om-load-boxout "output" 0 (om-make-point 140 444) (quote ((om-load-inputfun (quote input-funbox) "out" "out" nil))) nil nil) (om-load-boxin "input1" 1 (om-make-point 181 38) "no documentation" nil nil nil) (om-load-boxin "input" 0 (om-make-point 5 45) "no documentation" nil nil nil))) (quote ((6 0 0 0 nil 0) (0 0 1 0 nil 0) (13 0 2 0 nil 0) (2 0 3 0 nil 0) (3 0 4 0 nil 0) (14 0 5 0 nil 0) (9 0 6 0 nil 0) (7 0 6 1 nil 0) (11 0 6 2 nil 0) (5 0 7 0 nil 0) (4 1 7 1 nil 0) (5 0 8 0 nil 0) (8 0 9 0 nil 0) (4 1 9 1 nil 0) (5 0 10 0 nil 0) (10 0 11 0 nil 0) (4 1 11 1 nil 0) (6 0 12 0 nil 0))) 6.0 nil) (quote ((om-load-inputfun (quote input-funbox) "no documentation" "input" nil) (om-load-inputfun (quote input-funbox) "no documentation" "input1" nil))) (om-make-point 195 241) nil nil nil "setSpaceSearch") (om-load-boxcall (quote lispfun) "LIST" (quote list) (quote ((om-load-inputfun (quote input-funbox) "add-input" "add-input" nil) (om-load-inputfun (quote input-funbox) "add-input" "add-input" nil))) (om-make-point 188 331) nil nil nil nil 1) (om-load-boxcall (quote genfun) "OM-" (quote om-) (quote ((om-load-inputfun (quote input-funbox) "first input" "SELF" 0) (om-load-inputfun (quote input-funbox) "second input" "NUM" 0))) (om-make-point 59 295) (om-make-point 48 35) nil nil nil 1) (om-load-boxcall (quote genfun) "OM//" (quote om//) (quote ((om-load-inputfun (quote input-funbox) "number or tree" "SELF" 1) (om-load-inputfun (quote input-funbox) "number or tree" "DIVISOR" 12))) (om-make-point 211 156) nil nil nil nil 2) (om-load-boxcall (quote genfun) "OM-ROUND" (quote om-round) (quote ((om-load-inputfun (quote input-funbox) "number or tree" "SELF" 1))) (om-make-point 114 160) nil nil nil nil 1) (om-load-boxcall (quote genfun) "OM/" (quote om/) (quote ((om-load-inputfun (quote input-funbox) "number or tree" "SELF" 1) (om-load-inputfun (quote input-funbox) "number or tree" "NUM" 100))) (om-make-point 52 163) nil nil nil nil 1) (om-load-boxcall (quote genfun) "collect" (quote listing) (quote ((om-load-inputfun (quote input-funbox) "no documentation" "WHAT?" nil))) (om-make-point 333 457) nil nil nil nil 3) (om-load-boxcall (quote genfun) "inlist" (quote listloop) (quote ((om-load-inputfun (quote input-funbox) "list to iterate" "LIST" nil))) (om-make-point 338 163) nil nil nil nil 1) (om-load-boxin "input1" 1 (om-make-point 341 55) "no documentation" nil nil nil) (om-load-boxin "input0" 0 (om-make-point 5 40) "no documentation" nil nil nil) (om-load-seqbox "finally" (quote finaldo) (quote ((om-load-inputfun (quote input-funbox) "patch" "PATCH" nil))) (om-make-point 484 596) nil nil nil 0) (om-load-seqbox "eachTime" (quote loopdo) (quote ((om-load-inputfun (quote input-funbox) "patch" "PATCH" nil))) (om-make-point 100 626) nil nil nil 0)) (quote ((3 0 0 0 nil 0) (4 0 1 0 nil 0) (0 0 2 1 nil 0) (13 1 3 0 nil 0) (5 0 4 0 nil 0) (8 0 5 0 nil 0) (9 0 6 0 nil 0) (10 0 7 0 nil 0) (14 0 7 1 nil 0) (6 0 8 0 nil 0) (7 1 8 1 nil 0) (11 0 9 0 nil 0) (7 0 9 1 nil 0) (11 0 10 0 nil 0) (12 0 11 0 nil 0) (16 0 12 0 nil 0) (1 0 13 0 nil 0) (15 0 14 0 nil 0) (2 0 17 0 nil 0) (13 0 18 0 nil 0))) 1 "omloop-chose best pc match" nil) (om-load-boxcall (quote genfun) "X-APPEND" (quote x-append) (quote ((om-load-inputfun (quote input-funbox) "first list" "L1?" nil) (om-load-inputfun (quote input-funbox) "second list" "L2?" nil))) (om-make-point 198 339) nil nil nil nil 1) (om-load-boxcall (quote lispfun) "CDR" (quote cdr) (quote ((om-load-inputfun (quote input-funbox) "X" "X" nil))) (om-make-point 288 196) nil nil nil nil 1) (om-load-boxcall (quote lispfun) "CAR" (quote car) (quote ((om-load-inputfun (quote input-funbox) "X" "X" nil))) (om-make-point 110 163) nil nil nil nil 1) (om-load-boxcall (quote genfun) "OMIF" (quote omif) (quote ((om-load-inputfun (quote input-funbox) "if" "TEST" nil) (om-load-inputfun (quote input-funbox) "then" "ACTION" nil) (om-load-inputfun (quote input-funbox) "else" "ELSE" nil))) (om-make-point 22 417) nil nil nil nil 1) (om-load-boxcall (quote bastype) "aux" (quote t) (quote nil) (om-make-point 63 89) (om-make-point 31 29) 3 "3" nil) (om-load-boxcall (quote genfun) "OM=" (quote om=) (quote ((om-load-inputfun (quote input-funbox) "a number" "SELF" 0) (om-load-inputfun (quote input-funbox) "a number" "NUM" 0))) (om-make-point 23 90) nil nil nil nil 1) (om-load-boxin "input2" 2 (om-make-point 255 18) "no documentation" "method" nil nil) (om-load-boxin "input1" 1 (om-make-point 193 171) "no documentation" "chord" nil nil) (om-load-boxin "input" 0 (om-make-point 137 79) "no documentation" "event" nil nil) (om-load-boxout "output" 0 (om-make-point 17 507) (quote ((om-load-inputfun (quote input-funbox) "out" "out" nil))) nil nil))) (quote ((3 0 0 0 nil 0) (8 0 0 1 nil 0) (0 0 1 0 nil 0) (2 0 1 1 nil 0) (9 0 2 0 nil 0) (9 0 3 0 nil 0) (6 0 4 0 nil 0) (1 0 4 1 nil 0) (7 0 6 0 nil 0) (5 0 6 1 nil 0) (4 0 10 0 nil 0))) 6.0 nil) (quote ((om-load-inputfun (quote input-funbox) "no documentation" "input" nil) (om-load-inputfun (quote input-funbox) "no documentation" "input1" nil) (om-load-inputfun (quote input-funbox) "no documentation" "input2" nil))) (om-make-point 444 261) nil nil nil "method-3") (om-load-boxcomment "comment" (om-make-point 180 93) (quote "Method:$0-Band pass note;$1-Band pass pitch class;$2-Round to nearest note;$3-Round to nearest pitch class.") "" (om-make-point 440 20) nil (om-make-color 0 0 0) (om-make-font "Geneva" 10 :family "Geneva" :style (quote (:plain)) :mode (quote nil))) (om-load-boxcall (quote abstraction) "mypatch2" (om-load-patch-abs1 "method-2" (quote ((om-load-boxcall (quote bastype) "aux2" (quote t) (quote nil) (om-make-point 399 334) (om-make-point 19 27) 1 "1" nil) (om-load-boxcall (quote lispfun) "NTH" (quote nth) (quote ((om-load-inputfun (quote input-funbox) "ORIG-N" "ORIG-N" 1) (om-load-inputfun (quote input-funbox) "ORIG-LIST" "ORIG-LIST" nil))) (om-make-point 424 381) nil nil nil nil 1) (om-load-boxcall (quote lispfun) "CAR1" (quote car) (quote ((om-load-inputfun (quote input-funbox) "X" "X" nil))) (om-make-point 447 316) nil nil nil nil 1) (om-load-boxcall (quote genfun) "X-APPEND" (quote x-append) (quote ((om-load-inputfun (quote input-funbox) "first list" "L1?" nil) (om-load-inputfun (quote input-funbox) "second list" "L2?" nil))) (om-make-point 476 419) nil nil nil nil 1) (om-load-boxcall (quote lispfun) "CDR" (quote cdr) (quote ((om-load-inputfun (quote input-funbox) "X" "X" nil))) (om-make-point 590 139) nil nil nil nil 1) (om-load-boxcall (quote bastype) "aux1" (quote t) (quote nil) (om-make-point 484 207) (om-make-point 50 24) (quote first) "first" nil) (om-load-boxcall (quote genfun) "SORT." (quote sort.) (quote ((om-load-inputfun (quote input-funbox) "the list" "LST" nil) (om-load-inputfun (quote input-funbox) "test" "TEST" (quote <)) (om-load-inputfun (quote input-funbox) "key" "KEY" nil))) (om-make-point 446 248) nil nil nil nil 1) (om-load-boxcall (quote genfun) "MAT-TRANS" (quote mat-trans) (quote ((om-load-inputfun (quote input-funbox) "the list" "MATRIX" nil))) (om-make-point 392 179) nil nil nil nil 1) (om-load-boxcall (quote lispfun) "LIST" (quote list) (quote ((om-load-inputfun (quote input-funbox) "add-input" "add-input" nil) (om-load-inputfun (quote input-funbox) "add-input" "add-input" nil))) (om-make-point 279 241) nil nil nil nil 1) (om-load-boxcall (quote genfun) "OM-ABS" (quote om-abs) (quote ((om-load-inputfun (quote input-funbox) "number or tree" "SELF" 1))) (om-make-point 200 216) nil nil nil nil 1) (om-load-boxcall (quote genfun) "OM-" (quote om-) (quote ((om-load-inputfun (quote input-funbox) "first input" "SELF" 0) (om-load-inputfun (quote input-funbox) "second input" "NUM" 0))) (om-make-point 209 167) nil nil nil nil 1) (om-load-boxcall (quote lispfun) "CAR" (quote car) (quote ((om-load-inputfun (quote input-funbox) "X" "X" nil))) (om-make-point 101 162) nil nil nil nil 1) (om-load-boxcall (quote genfun) "OMIF" (quote omif) (quote ((om-load-inputfun (quote input-funbox) "if" "TEST" nil) (om-load-inputfun (quote input-funbox) "then" "ACTION" nil) (om-load-inputfun (quote input-funbox) "else" "ELSE" nil))) (om-make-point 22 417) nil nil nil nil 1) (om-load-boxcall (quote bastype) "aux" (quote t) (quote nil) (om-make-point 63 89) (om-make-point 31 29) 2 "2" nil) (om-load-boxcall (quote genfun) "OM=" (quote om=) (quote ((om-load-inputfun (quote input-funbox) "a number" "SELF" 0) (om-load-inputfun (quote input-funbox) "a number" "NUM" 0))) (om-make-point 23 90) nil nil nil nil 1) (om-load-boxin "input2" 2 (om-make-point 457 14) "no documentation" "method" nil nil) (om-load-boxin "input1" 1 (om-make-point 310 139) "no documentation" "chord" nil nil) (om-load-boxin "input" 0 (om-make-point 137 79) "no documentation" "event" nil nil) (om-load-boxout "output" 0 (om-make-point 17 507) (quote ((om-load-inputfun (quote input-funbox) "out" "out" nil))) nil nil))) (quote ((0 0 1 0 nil 0) (2 0 1 1 nil 0) (6 0 2 0 nil 0) (1 0 3 0 nil 0) (4 0 3 1 nil 0) (17 0 4 0 nil 0) (7 0 6 0 nil 0) (5 0 6 2 nil 0) (8 0 7 0 nil 0) (9 0 8 0 nil 0) (16 0 8 1 nil 0) (10 0 9 0 nil 0) (11 0 10 0 nil 0) (16 0 10 1 nil 0) (17 0 11 0 nil 0) (14 0 12 0 nil 0) (3 0 12 1 nil 0) (15 0 14 0 nil 0) (13 0 14 1 nil 0) (12 0 18 0 nil 0))) 6.0 nil) (quote ((om-load-inputfun (quote input-funbox) "no documentation" "input" nil) (om-load-inputfun (quote input-funbox) "no documentation" "input1" nil) (om-load-inputfun (quote input-funbox) "no documentation" "input2" nil))) (om-make-point 330 265) nil nil nil "method-2") (om-load-boxcall (quote abstraction) "mypatch1" (om-load-patch-abs1 "method-1" (quote ((om-load-boxcall (quote genfun) "OM//1" (quote om//) (quote ((om-load-inputfun (quote input-funbox) "number or tree" "SELF" 1) (om-load-inputfun (quote input-funbox) "number or tree" "DIVISOR" 12))) (om-make-point 278 271) nil nil nil nil 2) (om-load-boxcall (quote genfun) "OM-ROUND1" (quote om-round) (quote ((om-load-inputfun (quote input-funbox) "number or tree" "SELF" 1))) (om-make-point 263 203) nil nil nil nil 1) (om-load-boxcall (quote genfun) "OM/1" (quote om/) (quote ((om-load-inputfun (quote input-funbox) "number or tree" "SELF" 1) (om-load-inputfun (quote input-funbox) "number or tree" "NUM" 100))) (om-make-point 264 166) (om-make-point 56 35) nil nil nil 1) (om-load-boxcall (quote genfun) "OM//" (quote om//) (quote ((om-load-inputfun (quote input-funbox) "number or tree" "SELF" 1) (om-load-inputfun (quote input-funbox) "number or tree" "DIVISOR" 12))) (om-make-point 468 251) nil nil nil nil 2) (om-load-boxcall (quote genfun) "OM-ROUND" (quote om-round) (quote ((om-load-inputfun (quote input-funbox) "number or tree" "SELF" 1))) (om-make-point 453 183) nil nil nil nil 1) (om-load-boxcall (quote genfun) "OM/" (quote om/) (quote ((om-load-inputfun (quote input-funbox) "number or tree" "SELF" 1) (om-load-inputfun (quote input-funbox) "number or tree" "NUM" 100))) (om-make-point 454 146) (om-make-point 56 35) nil nil nil 1) (om-load-boxcall (quote lispfun) "LIST" (quote list) (quote ((om-load-inputfun (quote input-funbox) "add-input" "add-input" nil))) (om-make-point 212 151) nil nil nil nil 1) (om-load-boxcall (quote lispfun) "FIRST" (quote first) (quote ((om-load-inputfun (quote input-funbox) "LIST" "LIST" nil))) (om-make-point 213 94) nil nil nil nil 1) (om-load-boxcall (quote genfun) "OMIF1" (quote omif) (quote ((om-load-inputfun (quote input-funbox) "if" "TEST" nil) (om-load-inputfun (quote input-funbox) "then" "ACTION" nil) (om-load-inputfun (quote input-funbox) "else" "ELSE" nil))) (om-make-point 136 427) nil nil nil nil 1) (om-load-boxcall (quote genfun) "INCLUDED?" (quote included?) (quote ((om-load-inputfun (quote input-funbox) "first list" "LST1" nil) (om-load-inputfun (quote input-funbox) "second list" "LST2" nil))) (om-make-point 201 365) (om-make-point 177 58) nil nil nil 1) (om-load-boxcall (quote genfun) "OMIF" (quote omif) (quote ((om-load-inputfun (quote input-funbox) "if" "TEST" nil) (om-load-inputfun (quote input-funbox) "then" "ACTION" nil) (om-load-inputfun (quote input-funbox) "else" "ELSE" nil))) (om-make-point 22 417) nil nil nil nil 1) (om-load-boxcall (quote bastype) "aux" (quote t) (quote nil) (om-make-point 63 89) (om-make-point 31 29) 1 "1" nil) (om-load-boxcall (quote genfun) "OM=" (quote om=) (quote ((om-load-inputfun (quote input-funbox) "a number" "SELF" 0) (om-load-inputfun (quote input-funbox) "a number" "NUM" 0))) (om-make-point 23 90) nil nil nil nil 1) (om-load-boxin "input2" 2 (om-make-point 404 11) "no documentation" "method" nil nil) (om-load-boxin "input1" 1 (om-make-point 361 83) "no documentation" "chord" nil nil) (om-load-boxin "input" 0 (om-make-point 137 79) "no documentation" "event" nil nil) (om-load-boxout "output" 0 (om-make-point 16 507) (quote ((om-load-inputfun (quote input-funbox) "out" "out" nil))) nil nil))) (quote ((1 0 0 0 nil 0) (2 0 1 0 nil 0) (6 0 2 0 nil 0) (4 0 3 0 nil 0) (5 0 4 0 nil 0) (14 0 5 0 nil 0) (7 0 6 0 nil 0) (15 0 7 0 nil 0) (9 0 8 0 nil 0) (15 0 8 1 nil 0) (0 1 9 0 nil 0) (3 1 9 1 nil 0) (12 0 10 0 nil 0) (8 0 10 1 nil 0) (13 0 12 0 nil 0) (11 0 12 1 nil 0) (10 0 16 0 nil 0))) 6.0 nil) (quote ((om-load-inputfun (quote input-funbox) "no documentation" "input" nil) (om-load-inputfun (quote input-funbox) "no documentation" "input1" nil) (om-load-inputfun (quote input-funbox) "no documentation" "input2" nil))) (om-make-point 228 271) nil nil nil "method-1") (om-load-boxcall (quote abstraction) "mypatch" (om-load-patch-abs1 "method-0" (quote ((om-load-boxcall (quote lispfun) "LIST" (quote list) (quote ((om-load-inputfun (quote input-funbox) "add-input" "add-input" nil))) (om-make-point 232 199) nil nil nil nil 1) (om-load-boxcall (quote lispfun) "FIRST" (quote first) (quote ((om-load-inputfun (quote input-funbox) "LIST" "LIST" nil))) (om-make-point 213 156) nil nil nil nil 1) (om-load-boxcall (quote genfun) "OMIF1" (quote omif) (quote ((om-load-inputfun (quote input-funbox) "if" "TEST" nil) (om-load-inputfun (quote input-funbox) "then" "ACTION" nil) (om-load-inputfun (quote input-funbox) "else" "ELSE" nil))) (om-make-point 135 339) nil nil nil nil 1) (om-load-boxcall (quote genfun) "INCLUDED?" (quote included?) (quote ((om-load-inputfun (quote input-funbox) "first list" "LST1" nil) (om-load-inputfun (quote input-funbox) "second list" "LST2" nil))) (om-make-point 195 260) (om-make-point 177 58) nil nil nil 1) (om-load-boxcall (quote genfun) "OMIF" (quote omif) (quote ((om-load-inputfun (quote input-funbox) "if" "TEST" nil) (om-load-inputfun (quote input-funbox) "then" "ACTION" nil) (om-load-inputfun (quote input-funbox) "else" "ELSE" nil))) (om-make-point 22 417) nil nil nil nil 1) (om-load-boxcall (quote bastype) "aux" (quote t) (quote nil) (om-make-point 63 89) (om-make-point 31 29) 0 "0" nil) (om-load-boxcall (quote genfun) "OM=" (quote om=) (quote ((om-load-inputfun (quote input-funbox) "a number" "SELF" 0) (om-load-inputfun (quote input-funbox) "a number" "NUM" 0))) (om-make-point 23 90) nil nil nil nil 1) (om-load-boxin "input2" 2 (om-make-point 404 11) "no documentation" "method" nil nil) (om-load-boxin "input1" 1 (om-make-point 361 83) "no documentation" "chord" nil nil) (om-load-boxin "input" 0 (om-make-point 137 79) "no documentation" "event" nil nil) (om-load-boxout "output" 0 (om-make-point 16 507) (quote ((om-load-inputfun (quote input-funbox) "out" "out" nil))) nil nil))) (quote ((1 0 0 0 nil 0) (9 0 1 0 nil 0) (3 0 2 0 nil 0) (9 0 2 1 nil 0) (0 0 3 0 nil 0) (8 0 3 1 nil 0) (6 0 4 0 nil 0) (2 0 4 1 nil 0) (7 0 6 0 nil 0) (5 0 6 1 nil 0) (4 0 10 0 nil 0))) 6.0 nil) (quote ((om-load-inputfun (quote input-funbox) "no documentation" "input" nil) (om-load-inputfun (quote input-funbox) "no documentation" "input1" nil) (om-load-inputfun (quote input-funbox) "no documentation" "input2" nil))) (om-make-point 94 265) nil nil nil "method-0") (om-load-boxcall (quote genfun) "CONDITIONAL" (quote conditional) (quote ((om-load-inputfun (quote input-funbox) "test" "TEST" nil) (om-load-inputfun (quote input-funbox) "add-test" "ADDTEST" (quote t)) (om-load-inputfun (quote input-funbox) "add-test" "ADDTEST" (quote t)) (om-load-inputfun (quote input-funbox) "add-test" "ADDTEST" (quote t)))) (om-make-point 38 333) (om-make-point 523 58) nil nil nil 1) (om-load-boxcall (quote genfun) "collect" (quote listing) (quote ((om-load-inputfun (quote input-funbox) "no documentation" "WHAT?" nil))) (om-make-point 283 416) nil nil nil nil 3) (om-load-boxcall (quote genfun) "inlist" (quote listloop) (quote ((om-load-inputfun (quote input-funbox) "list to iterate" "LIST" nil))) (om-make-point 80 46) nil nil nil nil 1) (om-load-boxin "input2" 2 (om-make-point 558 157) "no documentation" "method" nil nil) (om-load-boxin "input1" 1 (om-make-point 37 122) "no documentation" "chord" nil nil) (om-load-boxin "input0" 0 (om-make-point 5 40) "no documentation" "event" nil nil) (om-load-seqbox "finally" (quote finaldo) (quote ((om-load-inputfun (quote input-funbox) "patch" "PATCH" nil))) (om-make-point 510 492) nil nil nil 0) (om-load-seqbox "eachTime" (quote loopdo) (quote ((om-load-inputfun (quote input-funbox) "patch" "PATCH" nil))) (om-make-point 126 491) nil nil nil 0)) (quote ((7 0 0 0 nil 0) (9 0 0 1 nil 0) (8 0 0 2 nil 0) (7 0 2 0 nil 0) (9 0 2 1 nil 0) (8 0 2 2 nil 0) (7 0 3 0 nil 0) (9 0 3 1 nil 0) (8 0 3 2 nil 0) (7 0 4 0 nil 0) (9 0 4 1 nil 0) (8 0 4 2 nil 0) (4 0 5 0 nil 0) (3 0 5 1 nil 0) (2 0 5 2 nil 0) (0 0 5 3 nil 0) (5 0 6 0 nil 0) (10 0 7 0 nil 0) (6 1 11 0 nil 0) (6 0 12 0 nil 0))) 1 "omloop - apply method" nil) (om-load-boxcall (quote bastype) "aux" (quote t) (quote nil) (om-make-point 169 569) (om-make-point 21 30) 1 "1" nil) (om-load-boxcall (quote genfun) "FLAT" (quote flat) (quote ((om-load-inputfun (quote input-funbox) "one list" "LST" nil) (om-load-inputfun (quote input-funbox) "level of parenthesis" "LEVEL" 1))) (om-make-point 119 611) nil nil nil nil 1) (om-load-boxwithed1 (quote box-with-win) "OMLOOP" (quote omloop) (quote ((om-load-inputfun (quote input-funbox) "aditional input" "OPLIST" nil) (om-load-inputfun (quote input-funbox) "aditional input" "OPLIST" nil))) (om-make-point 29 320) nil nil nil (list (om-load-boxcall (quote bastype) "aux" (quote t) (quote nil) (om-make-point 407 524) (om-make-point 21 30) 1 "1" nil) (om-load-boxcall (quote genfun) "FLAT" (quote flat) (quote ((om-load-inputfun (quote input-funbox) "one list" "LST" nil) (om-load-inputfun (quote input-funbox) "level of parenthesis" "LEVEL" 1))) (om-make-point 385 555) nil nil nil nil 1) (om-load-boxcall (quote genfun) "MAT-TRANS" (quote mat-trans) (quote ((om-load-inputfun (quote input-funbox) "the list" "MATRIX" nil))) (om-make-point 298 499) nil nil nil nil 1) (om-load-boxcall (quote lispfun) "LENGTH" (quote length) (quote ((om-load-inputfun (quote input-funbox) "SEQUENCE" "SEQUENCE" nil))) (om-make-point 218 324) nil nil nil nil 1) (om-load-boxcall (quote genfun) "REPEAT-N" (quote repeat-n) (quote ((om-load-inputfun (quote input-funbox) "patch" "SELF" nil) (om-load-inputfun (quote input-funbox) "times" "NUM" 0))) (om-make-point 199 389) nil nil nil nil 1) (om-load-boxcall (quote genfun) "OM+" (quote om+) (quote ((om-load-inputfun (quote input-funbox) "first input" "SELF" 0) (om-load-inputfun (quote input-funbox) "second input" "NUM" 0))) (om-make-point 200 350) nil nil nil nil 1) (om-load-boxcall (quote lispfun) "LIST" (quote list) (quote ((om-load-inputfun (quote input-funbox) "add-input" "add-input" nil) (om-load-inputfun (quote input-funbox) "add-input" "add-input" nil) (om-load-inputfun (quote input-funbox) "add-input" "add-input" nil) (om-load-inputfun (quote input-funbox) "add-input" "add-input" nil) (om-load-inputfun (quote input-funbox) "add-input" "add-input" nil))) (om-make-point 44 453) (om-make-point 600 42) nil nil nil 1) (om-load-boxcall (quote genfun) "inlist111" (quote listloop) (quote ((om-load-inputfun (quote input-funbox) "list to iterate" "LIST" nil))) (om-make-point 460 233) nil nil nil nil 1) (om-load-boxcall (quote genfun) "inlist11" (quote listloop) (quote ((om-load-inputfun (quote input-funbox) "list to iterate" "LIST" nil))) (om-make-point 323 229) nil nil nil nil 1) (om-load-boxcall (quote genfun) "inlist2" (quote listloop) (quote ((om-load-inputfun (quote input-funbox) "list to iterate" "LIST" nil))) (om-make-point 258 227) nil nil nil nil 1) (om-load-boxcall (quote genfun) "inlist1" (quote listloop) (quote ((om-load-inputfun (quote input-funbox) "list to iterate" "LIST" nil))) (om-make-point 197 224) nil nil nil nil 1) (om-load-boxcall (quote genfun) "inlist" (quote listloop) (quote ((om-load-inputfun (quote input-funbox) "list to iterate" "LIST" nil))) (om-make-point 131 222) nil nil nil nil 1) (om-load-boxcall (quote genfun) "collect" (quote listing) (quote ((om-load-inputfun (quote input-funbox) "no documentation" "WHAT?" nil))) (om-make-point 233 533) nil nil nil nil 3) (om-load-editor-box1 "CHORD-SEQ" (quote chord-seq) (quote ((om-load-inputfun (quote input-funbox) "objs" "SELF" nil) (om-load-inputfun (quote input-funbox) "no documentation" "LMIDIC" (list 6000)) (om-load-inputfun (quote input-funbox) "no documentation" "LONSET" (list 0 1000)) (om-load-inputfun (quote input-funbox) "no documentation" "LDUR" (list 1000)) (om-load-inputfun (quote input-funbox) "no documentation" "LVEL" (list 100)) (om-load-inputfun (quote input-funbox) "no documentation" "LOFFSET" (list 0)) (om-load-inputfun (quote input-funbox) "no documentation" "LCHAN" (list 1)) (om-load-inputfun (quote input-funbox) "no documentation" "LEGATO" 0))) (om-make-point 19 132) (om-make-point 590 75) (let ((newobj (when (find-class (quote chord-seq) nil) (make-instance (quote chord-seq) :lmidic (quote ((6000))) :lonset (quote (0 1000)) :ldur (quote ((1000))) :lvel (quote ((100))) :loffset (quote ((0))) :lchan (quote ((1))) :legato 0)))) (load-port-info newobj (quote ((0)))) (init-mus-color newobj (quote nil)) (set-extra-pairs newobj (quote nil)) (set-patch-pairs newobj (quote nil)) (set-tonalite newobj nil) newobj) nil nil (pairlis (quote (palette-mode scale show-stems obj-mode score-mode winpos winsize mode grillestep notechancolor? zoom inport outport deltapict cmnpref staff fontsize approx)) (list 0 nil (quote t) 1 0 (om-make-point 400 20) (om-make-point 370 280) 0 1000 nil 1 0 0 (om-make-point 0 0) (let ((newobj (make-instance (quote edition-values)))) (setf (paper-size newobj) (om-make-point 600 800)) (setf (top-margin newobj) 2) (setf (left-margin newobj) 1) (setf (right-margin newobj) 1) (setf (bottom-margin newobj) 1) (setf (orientation newobj) nil) (setf (scale newobj) nil) (setf (system-space newobj) (quote (1))) (setf (line-space newobj) 1) (setf (title newobj) nil) (setf (show-title? newobj) nil) (setf (show-page? newobj) nil) (setf (sheet-id newobj) nil) (setf (page-mode newobj) nil) newobj) (quote g) 24 2)) nil nil nil) (om-load-boxin "input1" 1 (om-make-point 631 217) "no documentation" "original_onset" nil nil) (om-load-boxin "input0" 0 (om-make-point 5 40) "no documentation" nil nil nil) (om-load-seqbox "finally" (quote finaldo) (quote ((om-load-inputfun (quote input-funbox) "patch" "PATCH" nil))) (om-make-point 493 569) nil nil nil 0) (om-load-seqbox "eachTime" (quote loopdo) (quote ((om-load-inputfun (quote input-funbox) "patch" "PATCH" nil))) (om-make-point 41 533) nil nil nil 0)) (quote ((12 1 1 0 nil 0) (0 0 1 1 nil 0) (6 0 2 0 nil 0) (11 0 3 0 nil 0) (5 0 4 0 nil 0) (3 0 4 1 nil 0) (10 0 5 0 nil 0) (14 0 5 1 nil 2) (11 0 6 0 nil 0) (4 0 6 1 nil 0) (9 0 6 2 nil 0) (8 0 6 3 nil 0) (7 0 6 4 nil 0) (13 6 7 0 nil 0) (13 4 8 0 nil 0) (13 3 9 0 nil 0) (13 2 10 0 nil 0) (13 1 11 0 nil 0) (2 0 12 0 nil 0) (15 0 13 0 nil 0) (1 0 16 0 nil 0) (12 0 17 0 nil 0))) 1 "omloop - get note event list" nil) (om-load-boxcall (quote genfun) "inlist11" (quote listloop) (quote ((om-load-inputfun (quote input-funbox) "list to iterate" "LIST" nil))) (om-make-point 317 119) nil nil nil nil 1) (om-load-boxcall (quote genfun) "inlist1" (quote listloop) (quote ((om-load-inputfun (quote input-funbox) "list to iterate" "LIST" nil))) (om-make-point 247 116) nil nil nil nil 1) (om-load-boxcall (quote genfun) "inlist" (quote listloop) (quote ((om-load-inputfun (quote input-funbox) "list to iterate" "LIST" nil))) (om-make-point 228 299) nil nil nil nil 1) (om-load-boxcall (quote genfun) "SELECT" (quote select) (quote ((om-load-inputfun (quote input-funbox) "a music sequence" "SELF" (let ((newobj (when (find-class (quote voice) nil) (make-instance (quote voice) :tree (quote (1 (((4 4) (1 1 1 1))))) :chords (load-obj-list-from-save (quote ((make-instance (quote chord) :lmidic (quote (6000)) :ldur (quote (1000)) :lvel (quote (100)) :loffset (quote (0)) :lchan (quote (1))) (make-instance (quote chord) :lmidic (quote (6000)) :ldur (quote (1000)) :lvel (quote (100)) :loffset (quote (0)) :lchan (quote (1))) (make-instance (quote chord) :lmidic (quote (6000)) :ldur (quote (1000)) :lvel (quote (100)) :loffset (quote (0)) :lchan (quote (1))) (make-instance (quote chord) :lmidic (quote (6000)) :ldur (quote (1000)) :lvel (quote (100)) :loffset (quote (0)) :lchan (quote (1)))))) :tempo (quote ((1/4 60) nil)) :legato 100 :ties (quote (nil nil nil nil)))))) (load-port-info newobj (quote (((0) (0) (0) (0))))) (init-mus-color newobj (quote nil)) (set-extra-pairs newobj (quote nil)) (set-patch-pairs newobj (quote nil)) (set-tonalite newobj nil) newobj)) (om-load-inputfun (quote input-funbox) "an integer" "START" 0) (om-load-inputfun (quote input-funbox) "an integer" "END" 1))) (om-make-point 48 185) (om-make-point 63 58) nil nil nil 1) (om-load-editor-box1 "CHORD-SEQ" (quote chord-seq) (quote ((om-load-inputfun (quote input-funbox) "objs" "SELF" nil) (om-load-inputfun (quote input-funbox) "no documentation" "LMIDIC" (list 6000)) (om-load-inputfun (quote input-funbox) "no documentation" "LONSET" (list 0 1000)) (om-load-inputfun (quote input-funbox) "no documentation" "LDUR" (list 1000)) (om-load-inputfun (quote input-funbox) "no documentation" "LVEL" (list 100)) (om-load-inputfun (quote input-funbox) "no documentation" "LOFFSET" (list 0)) (om-load-inputfun (quote input-funbox) "no documentation" "LCHAN" (list 1)) (om-load-inputfun (quote input-funbox) "no documentation" "LEGATO" 0))) (om-make-point 184 52) (om-make-point 297 61) (let ((newobj (when (find-class (quote chord-seq) nil) (make-instance (quote chord-seq) :lmidic (quote ((6000))) :lonset (quote (0 1000)) :ldur (quote ((1000))) :lvel (quote ((100))) :loffset (quote ((0))) :lchan (quote ((1))) :legato 0)))) (load-port-info newobj (quote ((0)))) (init-mus-color newobj (quote nil)) (set-extra-pairs newobj (quote nil)) (set-patch-pairs newobj (quote nil)) (set-tonalite newobj nil) newobj) "&" nil (pairlis (quote (palette-mode scale show-stems obj-mode score-mode winpos winsize mode grillestep notechancolor? zoom inport outport deltapict cmnpref staff fontsize approx)) (list 0 nil (quote t) 1 0 (om-make-point 400 20) (om-make-point 370 280) 0 1000 nil 1 0 0 (om-make-point 0 0) (let ((newobj (make-instance (quote edition-values)))) (setf (paper-size newobj) (om-make-point 600 800)) (setf (top-margin newobj) 2) (setf (left-margin newobj) 1) (setf (right-margin newobj) 1) (setf (bottom-margin newobj) 1) (setf (orientation newobj) nil) (setf (scale newobj) nil) (setf (system-space newobj) (quote (1))) (setf (line-space newobj) 1) (setf (title newobj) nil) (setf (show-title? newobj) nil) (setf (show-page? newobj) nil) (setf (sheet-id newobj) nil) (setf (page-mode newobj) nil) newobj) (quote g) 24 2)) nil nil nil) (om-load-boxcall (quote genfun) "collect" (quote listing) (quote ((om-load-inputfun (quote input-funbox) "no documentation" "WHAT?" nil))) (om-make-point 67 486) (om-make-point 196 58) nil nil nil 3) (om-load-boxin "input2" 2 (om-make-point 108 110) "no documentation" "higher onset" nil nil) (om-load-boxin "input1" 1 (om-make-point 121 49) "no documentation" "INP-2" nil nil) (om-load-boxin "input0" 0 (om-make-point 39 50) "no documentation" "INP-1" nil nil) (om-load-seqbox "finally" (quote finaldo) (quote ((om-load-inputfun (quote input-funbox) "patch" "PATCH" nil))) (om-make-point 308 617) nil nil nil 0) (om-load-seqbox "eachTime" (quote loopdo) (quote ((om-load-inputfun (quote input-funbox) "patch" "PATCH" nil))) (om-make-point 25 638) nil nil nil 0)) (quote ((1 0 0 0 nil 0) (15 0 0 1 nil 0) (16 0 1 0 nil 0) (11 0 1 1 nil 0) (10 0 1 2 nil 0) (4 0 3 1 nil 0) (8 0 4 1 nil 0) (9 0 6 0 nil 0) (12 0 6 1 nil 0) (2 0 6 2 nil 0) (15 1 8 0 nil 0) (7 0 8 1 nil 0) (13 0 9 0 nil 0) (11 0 9 1 nil 0) (14 3 10 0 nil 0) (14 2 11 0 nil 0) (14 1 12 0 nil 3) (18 0 13 0 nil 0) (1 1 13 1 nil 0) (1 2 13 2 nil 0) (17 0 14 0 nil 0) (6 0 15 0 nil 0) (3 0 19 0 nil 0) (0 0 20 0 nil 0))) 1 "omloop-main loop" nil) (om-load-boxout "output" 0 (om-make-point 537 569) (quote ((om-load-inputfun (quote input-funbox) "out" "out" nil))) "chord-seq-object" nil) (om-load-boxin "input2" 2 (om-make-point 431 57) "no documentation" "TimeAdjust" nil nil) (om-load-boxin "input1" 1 (om-make-point 353 53) "no documentation" "input-2" nil nil) (om-load-boxin "input" 0 (om-make-point 299 52) "no documentation" "input-1" nil nil))) (quote ((13 0 3 0 nil 0) (12 0 3 1 nil 0) (11 0 3 2 nil 0) (8 0 5 1 nil 0) (8 1 5 2 nil 0) (8 2 5 3 nil 0) (8 3 5 4 nil 0) (8 4 5 6 nil 0) (9 0 7 0 nil 0) (7 0 8 0 nil 0) (3 0 9 0 nil 0) (3 1 9 1 nil 0) (3 2 9 2 nil 0) (6 0 9 3 nil 0) (5 0 10 0 nil 0))) 6.0 nil) (quote ((om-load-inputfun (quote input-funbox) "no documentation" "input-1" nil) (om-load-inputfun (quote input-funbox) "no documentation" "input-2" nil) (om-load-inputfun (quote input-funbox) "no documentation" "TimeAdjust" nil) (om-load-inputfun (quote input-funbox) "no documentation" "Method" nil))) (om-make-point 317 240) (om-make-point 374 66) nil nil nil) (om-load-boxcomment "comment3" (om-make-point 290 35) (quote "Evaluate here to save output as a MIDI file.") "" (om-make-point 417 512) nil (om-make-color 0 0 0) (om-make-font "Geneva" 10 :family "Geneva" :style (quote (:plain)) :mode (quote nil))) (om-load-boxcomment "comment3" (om-make-point 290 35) (quote "Evaluate here to see the resulting output.") "" (om-make-point 456 466) nil (om-make-color 0 0 0) (om-make-font "Geneva" 10 :family "Geneva" :style (quote (:plain)) :mode (quote nil))) (om-load-boxcomment "comment" (om-make-point 262 452) (quote "This patch transposes to the note domain the operations of filtering and morphing that we find in the audio domain.$His operating mode is anchored on the idea of palimpsest, and its operation mode can be described as follows: it takes two input MIDI files or chord-seq (a source file and a modulator file) and produces a third MIDI file according to one of two main operation modes (the Method parameter).$The first mode, keeps only the notes from the source file that are equal to the notes of the modulation file, or, in a slight variant possibility, it keeps those notes having the same pitch class. It is thus a resulting hybridization between spectral multiplication and the use of comb filters.$The second mode, rounds all notes from the source file to the nearest notes of the modulation file, or again, in a slight variant possibility, it rounds them to the near pitch class.$The 2009 version is a revised one where a Time Adjust parameter has been added to adjust the length of the two input chord sequences.") "" (om-make-point 3 31) nil (om-make-color 0 0 0) (om-make-font "Verdana" 12 :family "Verdana" :style (quote (:plain)) :mode (quote nil))) (om-load-boxcomment "comment2" (om-make-point 255 98) (quote "Time adjust (integer):$0-No change;$1-Length of Inp-1 set to length of Inp-2;$2 (or else) -Length of Inp-2 set to length of Inp-1.") "" (om-make-point 696 76) nil (om-make-color 0 0 0) (om-make-font "Geneva" 10 :family "Geneva" :style (quote (:plain)) :mode (quote nil))) (om-load-boxcall (quote bastype) "aux" (quote t) (quote nil) (om-make-point 639 84) (om-make-point 37 28) 0 "0" nil) (om-load-boxcomment "comment1" (om-make-point 156 64) (quote "António de Sousa Dias$www.sousadias.com$2003, rev. 2008-2009") "" (om-make-point 2 473) nil (om-make-color 0.018735297 0.025613498 0.51131225) (om-make-font "Verdana" 12 :family "Verdana" :style (quote (:plain)) :mode (quote nil))) (om-load-boxcall (quote bastype) "aux" (quote t) (quote nil) (om-make-point 656 184) (om-make-point 37 28) 0 "0" nil) (om-load-boxcomment "comment" (om-make-point 180 93) (quote "Method (integer):$0-Band pass note;$1-Band pass pitch class;$2-Round to nearest note;$3-Round to nearest pitch class.") "" (om-make-point 698 177) nil (om-make-color 0 0 0) (om-make-font "Geneva" 10 :family "Geneva" :style (quote (:plain)) :mode (quote nil))) (om-load-boxcall (quote genfun) "SAVE-AS-MIDI" (quote save-as-midi) (quote ((om-load-inputfun (quote input-funbox) "a music object to save" "OBJECT" nil))) (om-make-point 344 472) nil nil nil nil 1) (om-load-editor-box1 "CHORD-SEQ11" (quote chord-seq) (quote ((om-load-inputfun (quote input-funbox) "objs" "SELF" nil) (om-load-inputfun (quote input-funbox) "no documentation" "LMIDIC" (list 6000)) (om-load-inputfun (quote input-funbox) "no documentation" "LONSET" (list 0 1000)) (om-load-inputfun (quote input-funbox) "no documentation" "LDUR" (list 1000)) (om-load-inputfun (quote input-funbox) "no documentation" "LVEL" (list 100)) (om-load-inputfun (quote input-funbox) "no documentation" "LOFFSET" (list 0)) (om-load-inputfun (quote input-funbox) "no documentation" "LCHAN" (list 1)) (om-load-inputfun (quote input-funbox) "no documentation" "LEGATO" 0))) (om-make-point 415 319) (om-make-point 476 145) (let ((newobj (when (find-class (quote chord-seq) nil) (make-instance (quote chord-seq) :lmidic (quote ((6200) (6500) (6800) (7400) (6300))) :lonset (quote (250 2625 3000 3750 4375 5000)) :ldur (quote ((125) (125) (125) (125) (125))) :lvel (quote ((100) (100) (100) (100) (100))) :loffset (quote ((0) (0) (0) (0) (0))) :lchan (quote ((2) (2) (2) (2) (2))) :legato 0)))) (load-port-info newobj (quote ((0) (0) (0) (0) (0)))) (init-mus-color newobj (quote nil)) (set-extra-pairs newobj (quote nil)) (set-patch-pairs newobj (quote nil)) (set-tonalite newobj nil) newobj) nil nil (pairlis (quote (approx fontsize staff cmnpref deltapict outport inport zoom notechancolor? grillestep mode winsize winpos palette-mode obj-mode show-stems scale)) (list 2 24 (quote ggff) (let ((newobj (make-instance (quote edition-values)))) (setf (paper-size newobj) (om-make-point 600 800)) (setf (top-margin newobj) 2) (setf (left-margin newobj) 1) (setf (right-margin newobj) 1) (setf (bottom-margin newobj) 1) (setf (orientation newobj) nil) (setf (scale newobj) nil) (setf (system-space newobj) (quote (1))) (setf (line-space newobj) 1) (setf (title newobj) nil) (setf (show-title? newobj) nil) (setf (show-page? newobj) nil) (setf (sheet-id newobj) nil) (setf (page-mode newobj) nil) newobj) (om-make-point 0 0) 0 0 33/50 nil 1000 0 (om-make-point 1237 422) (om-make-point 10 40) 0 0 (quote t) nil)) t nil nil) (om-load-editor-box1 "CHORD-SEQ1" (quote chord-seq) (quote ((om-load-inputfun (quote input-funbox) "objs" "SELF" nil) (om-load-inputfun (quote input-funbox) "no documentation" "LMIDIC" (list 6000)) (om-load-inputfun (quote input-funbox) "no documentation" "LONSET" (list 0 1000)) (om-load-inputfun (quote input-funbox) "no documentation" "LDUR" (list 1000)) (om-load-inputfun (quote input-funbox) "no documentation" "LVEL" (list 100)) (om-load-inputfun (quote input-funbox) "no documentation" "LOFFSET" (list 0)) (om-load-inputfun (quote input-funbox) "no documentation" "LCHAN" (list 1)) (om-load-inputfun (quote input-funbox) "no documentation" "LEGATO" 0))) (om-make-point 469 79) (om-make-point 152 138) (let ((newobj (when (find-class (quote chord-seq) nil) (make-instance (quote chord-seq) :lmidic (quote ((6200) (5900 6500 6800 7400 8200 8800) (6300) (3700 7700 8800))) :lonset (quote (0 2000 4000 6000 8000)) :ldur (quote ((2000) (2000 2000 2000 2000 2000 2000) (2000) (2000 2000 2000))) :lvel (quote ((100) (100 100 100 100 100 100) (100) (100 100 100))) :loffset (quote ((0) (0 0 0 0 0 0) (0) (0 0 0))) :lchan (quote ((1) (1 1 1 1 1 1) (1) (1 1 1))) :legato 0)))) (load-port-info newobj (quote ((0) (0 0 0 0 0 0) (0) (0 0 0)))) (init-mus-color newobj (quote nil)) (set-extra-pairs newobj (quote nil)) (set-patch-pairs newobj (quote nil)) (set-tonalite newobj nil) newobj) nil nil (pairlis (quote (approx fontsize staff cmnpref deltapict outport inport zoom notechancolor? grillestep mode winsize winpos palette-mode obj-mode show-stems scale)) (list 2 24 (quote ggff) (let ((newobj (make-instance (quote edition-values)))) (setf (paper-size newobj) (om-make-point 600 800)) (setf (top-margin newobj) 2) (setf (left-margin newobj) 1) (setf (right-margin newobj) 1) (setf (bottom-margin newobj) 1) (setf (orientation newobj) nil) (setf (scale newobj) nil) (setf (system-space newobj) (quote (1))) (setf (line-space newobj) 1) (setf (title newobj) nil) (setf (show-title? newobj) nil) (setf (show-page? newobj) nil) (setf (sheet-id newobj) nil) (setf (page-mode newobj) nil) newobj) (om-make-point 0 0) 0 0 1 nil 1000 0 (om-make-point 887 433) (om-make-point 10 40) 0 0 (quote t) nil)) t nil nil) (om-load-editor-box1 "CHORD-SEQ" (quote chord-seq) (quote ((om-load-inputfun (quote input-funbox) "objs" "SELF" nil) (om-load-inputfun (quote input-funbox) "no documentation" "LMIDIC" (list 6000)) (om-load-inputfun (quote input-funbox) "no documentation" "LONSET" (list 0 1000)) (om-load-inputfun (quote input-funbox) "no documentation" "LDUR" (list 1000)) (om-load-inputfun (quote input-funbox) "no documentation" "LVEL" (list 100)) (om-load-inputfun (quote input-funbox) "no documentation" "LOFFSET" (list 0)) (om-load-inputfun (quote input-funbox) "no documentation" "LCHAN" (list 2)) (om-load-inputfun (quote input-funbox) "no documentation" "LEGATO" 0))) (om-make-point 279 80) (om-make-point 178 136) (let ((newobj (when (find-class (quote chord-seq) nil) (make-instance (quote chord-seq) :lmidic (quote ((6000) (6100) (6200) (6300) (6400) (6500) (6600) (6700) (6800) (6900) (7000) (7100) (7200) (7300) (7400) (7500) (6000) (6100) (6200) (6300) (6400) (6500) (6600) (6700) (6800) (6900) (7000) (7100) (7200) (7300) (7400) (7500) (6000) (6100) (6200) (6300) (6400) (6500) (6600) (6700) (6800) (6900) (7000) (7100) (7200) (7300) (7400) (7500) (6000) (6100) (6200) (6300) (6400) (6500) (6600) (6700) (6800) (6900) (7000) (7100) (7200) (7300) (7400) (7500))) :lonset (quote (0 125 250 375 500 625 750 875 1000 1125 1250 1375 1500 1625 1750 1875 2000 2125 2250 2375 2500 2625 2750 2875 3000 3125 3250 3375 3500 3625 3750 3875 4000 4125 4250 4375 4500 4625 4750 4875 5000 5125 5250 5375 5500 5625 5750 5875 6000 6125 6250 6375 6500 6625 6750 6875 7000 7125 7250 7375 7500 7625 7750 7875 8000)) :ldur (quote ((125) (125) (125) (125) (125) (125) (125) (125) (125) (125) (125) (125) (125) (125) (125) (125) (125) (125) (125) (125) (125) (125) (125) (125) (125) (125) (125) (125) (125) (125) (125) (125) (125) (125) (125) (125) (125) (125) (125) (125) (125) (125) (125) (125) (125) (125) (125) (125) (125) (125) (125) (125) (125) (125) (125) (125) (125) (125) (125) (125) (125) (125) (125) (125))) :lvel (quote ((100) (100) (100) (100) (100) (100) (100) (100) (100) (100) (100) (100) (100) (100) (100) (100) (100) (100) (100) (100) (100) (100) (100) (100) (100) (100) (100) (100) (100) (100) (100) (100) (100) (100) (100) (100) (100) (100) (100) (100) (100) (100) (100) (100) (100) (100) (100) (100) (100) (100) (100) (100) (100) (100) (100) (100) (100) (100) (100) (100) (100) (100) (100) (100))) :loffset (quote ((0) (0) (0) (0) (0) (0) (0) (0) (0) (0) (0) (0) (0) (0) (0) (0) (0) (0) (0) (0) (0) (0) (0) (0) (0) (0) (0) (0) (0) (0) (0) (0) (0) (0) (0) (0) (0) (0) (0) (0) (0) (0) (0) (0) (0) (0) (0) (0) (0) (0) (0) (0) (0) (0) (0) (0) (0) (0) (0) (0) (0) (0) (0) (0))) :lchan (quote ((2) (2) (2) (2) (2) (2) (2) (2) (2) (2) (2) (2) (2) (2) (2) (2) (2) (2) (2) (2) (2) (2) (2) (2) (2) (2) (2) (2) (2) (2) (2) (2) (2) (2) (2) (2) (2) (2) (2) (2) (2) (2) (2) (2) (2) (2) (2) (2) (2) (2) (2) (2) (2) (2) (2) (2) (2) (2) (2) (2) (2) (2) (2) (2))) :legato 0)))) (load-port-info newobj (quote ((0) (0) (0) (0) (0) (0) (0) (0) (0) (0) (0) (0) (0) (0) (0) (0) (0) (0) (0) (0) (0) (0) (0) (0) (0) (0) (0) (0) (0) (0) (0) (0) (0) (0) (0) (0) (0) (0) (0) (0) (0) (0) (0) (0) (0) (0) (0) (0) (0) (0) (0) (0) (0) (0) (0) (0) (0) (0) (0) (0) (0) (0) (0) (0)))) (init-mus-color newobj (quote nil)) (set-extra-pairs newobj (quote nil)) (set-patch-pairs newobj (quote nil)) (set-tonalite newobj nil) newobj) nil nil (pairlis (quote (approx fontsize staff cmnpref deltapict outport inport zoom notechancolor? grillestep mode winsize winpos palette-mode obj-mode show-stems scale)) (list 2 24 (quote ggff) (let ((newobj (make-instance (quote edition-values)))) (setf (paper-size newobj) (om-make-point 600 800)) (setf (top-margin newobj) 2) (setf (left-margin newobj) 1) (setf (right-margin newobj) 1) (setf (bottom-margin newobj) 1) (setf (orientation newobj) nil) (setf (scale newobj) nil) (setf (system-space newobj) (quote (1))) (setf (line-space newobj) 1) (setf (title newobj) nil) (setf (show-title? newobj) nil) (setf (show-page? newobj) nil) (setf (sheet-id newobj) nil) (setf (page-mode newobj) nil) newobj) (om-make-point 0 0) 0 0 41/10 nil 1000 0 (om-make-point 1061 411) (om-make-point 10 40) 0 0 (quote t) nil)) t nil nil) (om-load-boxcall (quote abstraction) "mypatch1" (om-load-patch-abs1 "inp2-patch" (quote ((om-load-boxcall (quote bastype) "aux1" (quote t) (quote nil) (om-make-point 386 74) (om-make-point 92 49) (list 2000) "(2000)" nil) (om-load-boxcall (quote genfun) "DX->X" (quote dx->x) (quote ((om-load-inputfun (quote input-funbox) "a number" "START" 0) (om-load-inputfun (quote input-funbox) "a list of numbers" "LIST" (list 1 1)))) (om-make-point 342 216) nil nil nil nil 1) (om-load-boxout "output2" 2 (om-make-point 470 314) (quote ((om-load-inputfun (quote input-funbox) "out" "out" nil))) nil nil) (om-load-boxout "output1" 1 (om-make-point 371 317) (quote ((om-load-inputfun (quote input-funbox) "out" "out" nil))) nil nil) (om-load-boxcall (quote genfun) "OM*" (quote om*) (quote ((om-load-inputfun (quote input-funbox) "first input" "SELF" 0) (om-load-inputfun (quote input-funbox) "second input" "NUM" 100))) (om-make-point 154 131) nil nil nil nil 1) (om-load-boxcall (quote bastype) "aux" (quote t) (quote nil) (om-make-point 35 54) (om-make-point 260 48) (list (list 62) (list 59 65 68 74 82 88) (list 63) (list 37 77 88)) "((62) (59 65 68 74 82 88) (63) (37 77 88))" nil) (om-load-boxout "output" 0 (om-make-point 147 199) (quote ((om-load-inputfun (quote input-funbox) "out" "out" nil))) nil nil))) (quote ((0 0 1 1 nil 0) (0 0 2 0 nil 0) (1 0 3 0 nil 0) (5 0 4 0 nil 0) (4 0 6 0 nil 0))) 6.0 nil) (quote nil) (om-make-point 503 11) nil nil nil "inp2-patch") (om-load-boxcall (quote abstraction) "mypatch" (om-load-patch-abs1 "inp1-patch" (quote ((om-load-boxcall (quote genfun) "FLAT" (quote flat) (quote ((om-load-inputfun (quote input-funbox) "one list" "LST" nil))) (om-make-point 271 303) nil nil nil nil 1) (om-load-boxcall (quote genfun) "X-APPEND" (quote x-append) (quote ((om-load-inputfun (quote input-funbox) "first list" "L1?" nil) (om-load-inputfun (quote input-funbox) "second list" "L2?" nil))) (om-make-point 36 161) nil nil nil nil 1) (om-load-boxcall (quote bastype) "aux2" (quote t) (quote nil) (om-make-point 68 40) (om-make-point 37 35) 60 "60" nil) (om-load-boxcall (quote bastype) "aux" (quote t) (quote nil) (om-make-point 299 203) (om-make-point 22 37) 4 "4" nil) (om-load-boxcall (quote genfun) "REPEAT-N" (quote repeat-n) (quote ((om-load-inputfun (quote input-funbox) "patch" "SELF" nil) (om-load-inputfun (quote input-funbox) "times" "NUM" 0))) (om-make-point 168 257) nil nil nil nil 1) (om-load-boxcall (quote genfun) "OM+" (quote om+) (quote ((om-load-inputfun (quote input-funbox) "first input" "SELF" 0) (om-load-inputfun (quote input-funbox) "second input" "NUM" 0))) (om-make-point 83 87) (om-make-point 118 35) nil nil nil 1) (om-load-boxcall (quote genfun) "ARITHM-SER" (quote arithm-ser) (quote ((om-load-inputfun (quote input-funbox) "begin" "BEGIN" 0) (om-load-inputfun (quote input-funbox) "end " "END" 15) (om-load-inputfun (quote input-funbox) "step" "STEP" 1))) (om-make-point 219 23) nil nil nil nil 1) (om-load-boxcall (quote bastype) "aux1" (quote t) (quote nil) (om-make-point 463 118) (om-make-point 67 32) (list 125) "(125)" nil) (om-load-boxcall (quote genfun) "DX->X" (quote dx->x) (quote ((om-load-inputfun (quote input-funbox) "a number" "START" 0) (om-load-inputfun (quote input-funbox) "a list of numbers" "LIST" (list 1 1)))) (om-make-point 432 222) nil nil nil nil 1) (om-load-boxout "output2" 2 (om-make-point 484 317) (quote ((om-load-inputfun (quote input-funbox) "out" "out" nil))) nil nil) (om-load-boxout "output1" 1 (om-make-point 371 317) (quote ((om-load-inputfun (quote input-funbox) "out" "out" nil))) nil nil) (om-load-boxcall (quote genfun) "OM*" (quote om*) (quote ((om-load-inputfun (quote input-funbox) "first input" "SELF" 0) (om-load-inputfun (quote input-funbox) "second input" "NUM" 100))) (om-make-point 133 232) nil nil nil nil 1) (om-load-boxout "output" 0 (om-make-point 214 337) (quote ((om-load-inputfun (quote input-funbox) "out" "out" nil))) nil nil))) (quote ((4 0 0 0 nil 0) (5 0 1 0 nil 0) (11 0 4 0 nil 0) (3 0 4 1 nil 0) (2 0 5 0 nil 0) (6 0 5 1 nil 0) (7 0 8 1 nil 0) (7 0 9 0 nil 0) (8 0 10 0 nil 0) (1 0 11 0 nil 0) (0 0 12 0 nil 0))) 6.0 nil) (quote nil) (om-make-point 315 12) nil nil nil "inp1-patch"))) (quote ((12 0 0 0 nil 0) (11 0 0 1 nil 0) (5 0 0 2 nil 3) (7 0 0 3 nil 3) (10 0 9 0 nil 0) (0 0 10 0 nil 0) (13 0 11 1 nil 0) (13 1 11 2 nil 0) (13 2 11 3 nil 0) (14 0 12 1 nil 0) (14 1 12 2 nil 0) (14 2 12 3 nil 0))) nil 6.0))
