; OM File Header - Saved 2018/05/13 4:17:19
; (6.130002 :patc (om-make-point 277 33) (om-make-point 50 50) (om-make-point 459 449) "" 183 0 nil "2018/05/13 4:17:19")
; End File Header
(in-package :om)(load-lib-for (quote nil))(setf *om-current-persistent* (om-load-patch1 "rtm_step" (quote ((let ((box (om-load-boxcomment "comment" (om-make-point 349 83) (quote "RTM_STEP outputs two lists, from a list of distances (durations)$- a list of time points (on_sets)$- a list of durations (durs)") nil (om-make-point 68 6) nil (om-make-color 0 0 0) (om-make-font "Verdana" 12 :family "Verdana" :style (quote (:plain)) :mode (quote nil))))) (when (fboundp (quote set-active)) (set-active box nil)) box) (let ((box (om-load-boxcall (quote genfun) "DX->X" (quote dx->x) (quote ((om-load-inputfun (quote input-funbox) "a number" "START" 0) (om-load-inputfun (quote input-funbox) "a list of numbers" "LIST" (list 1 1)))) (om-make-point 101 229) nil nil nil nil 1))) (when (fboundp (quote set-active)) (set-active box nil)) box) (let ((box (om-load-boxcall (quote genfun) "OM-ROUND2" (quote om-round) (quote ((om-load-inputfun (quote input-funbox) "number or tree" "SELF" 1))) (om-make-point 204 163) nil nil nil nil 1))) (when (fboundp (quote set-active)) (set-active box nil)) box) (let ((box (om-load-boxout "output1" 1 (om-make-point 297 321) (quote ((om-load-inputfun (quote input-funbox) "out" "out" nil))) "durs" nil))) (when (fboundp (quote set-active)) (set-active box nil)) box) (let ((box (om-load-boxout "output" 0 (om-make-point 93 322) (quote ((om-load-inputfun (quote input-funbox) "out" "out" nil))) "on_sets" nil))) (when (fboundp (quote set-active)) (set-active box nil)) box) (let ((box (om-load-boxin "l_durs" 0 (om-make-point 216 88) "list of durations (distances)" "l_durs" (list 1000) nil))) (when (fboundp (quote set-active)) (set-active box nil)) box))) (quote ((2 0 1 1 nil 0) (5 0 2 0 nil 0) (2 0 3 0 nil 0) (1 0 4 0 nil 0))) nil 6.130002))
