; OM File Header - Saved 2018/05/12 17:09:06
; (6.130002 :patc (om-make-point 294 38) (om-make-point 575 65) (om-make-point 829 550) "" 183 0 "2018/05/12 16:37:24" "2018/05/12 17:09:06")
; End File Header
(in-package :om)(load-lib-for (quote ("Esquisse")))(setf *om-current-persistent* (om-load-patch1 "harmonic_transposition_help_ALL" (quote ((let ((box (om-load-boxcall (quote abstraction) "harmonic_transposition 2" (om-load-patch-abs1 "harmonic_transposition" (quote ((let ((box (om-load-boxcomment "comment 2" (om-make-point 199 55) (quote "NOTE$Requires the Esquisse library") "" (om-make-point 487 69) nil (om-make-color 0 0 0) (om-make-font "Verdana" 12 :family "Verdana" :style (quote (:plain)) :mode (quote nil))))) (when (fboundp (quote set-active)) (set-active box nil)) box) (let ((box (om-load-boxcomment "comment" (om-make-point 692 63) (quote "HARMONIC_TRANSPOSITION returns harmonic transpositions from a chord given as a midicent list.$$In the resulting <multi-seq>, the top line is the original list and in the bottom line the deduced fundamental.") "" (om-make-point 60 1) nil (om-make-color 0 0 0) (om-make-font "Verdana" 12 :family "Verdana" :style (quote (:plain)) :mode (quote nil))))) (when (fboundp (quote set-active)) (set-active box nil)) box) (let ((box (om-load-boxcomment "comment1" (om-make-point 156 64) (quote "António de Sousa Dias$www.sousadias.com$rev. 2008") "" (om-make-point 526 704) nil (om-make-color 0.018735297 0.025613498 0.51131225) (om-make-font "Verdana" 12 :family "Verdana" :style (quote (:plain)) :mode (quote nil))))) (when (fboundp (quote set-active)) (set-active box nil)) box) (let ((box (om-load-boxcomment "comment" (om-make-point 438 74) (quote "Inputs:$0-midicent list$1-Harmonic transposition (either a single value or a list of values)$2-Precision of the analysis in Cents") "" (om-make-point 59 54) nil (om-make-color 0 0 0) (om-make-font "Verdana" 12 :family "Verdana" :style (quote (:plain)) :mode (quote nil))))) (when (fboundp (quote set-active)) (set-active box nil)) box) (let ((box (om-load-boxwithed1 (quote box-with-win) "OMLOOP" (quote omloop) (quote ((om-load-inputfun (quote input-funbox) "no documentation" "virt_fund" nil) (om-load-inputfun (quote input-funbox) "no documentation" "l_harmonic_transp" nil) (om-load-inputfun (quote input-funbox) "no documentation" "l_harm_dist" nil))) (om-make-point 180 563) (om-make-point 314 55) nil nil (list (let ((box (om-load-boxcall (quote genfun) "FLAT" (quote flat) (quote ((om-load-inputfun (quote input-funbox) "one list" "LST" nil))) (om-make-point 142 105) nil nil nil nil 1))) (when (fboundp (quote set-active)) (set-active box nil)) box) (let ((box (om-load-boxcall (quote lispfun) "LIST" (quote list) (quote ((om-load-inputfun (quote input-funbox) "add-input" "add-input" nil))) (om-make-point 101 100) nil nil nil nil 1))) (when (fboundp (quote set-active)) (set-active box nil)) box) (let ((box (om-load-boxcall (quote genfun) "NTH-HARM" (quote nth-harm) (quote ((om-load-inputfun (quote input-funbox) "Fundamental" "FUND" 3600) (om-load-inputfun (quote input-funbox) "Partial-numbers" "NTH" (list 1 2 3 4 5)) (om-load-inputfunmenu1 (quote input-funmenu) "Unit" "UNIT" 1 (list (list "Midics" 1) (list "Freqs" 2))) (om-load-inputfunmenu1 (quote input-funmenu) "Type" "TYPE" 1 (list (list "Chord" 2) (list "ChordSeq" 1))))) (om-make-point 48 174) nil nil nil nil 1))) (when (fboundp (quote set-active)) (set-active box nil)) box) (let ((box (om-load-boxcall (quote genfun) "OM+" (quote om+) (quote ((om-load-inputfun (quote input-funbox) "first input" "SELF" 0) (om-load-inputfun (quote input-funbox) "second input" "NUM" 0))) (om-make-point 161 188) (om-make-point 140 35) nil nil nil 1))) (when (fboundp (quote set-active)) (set-active box nil)) box) (let ((box (om-load-editor-box1 "CHORD-SEQ" (quote chord-seq) (quote ((om-load-inputfun (quote input-funbox) "objs" "SELF" nil) (om-load-inputfun (quote input-funbox) "no documentation" "LMIDIC" (list 6000)) (om-load-inputfun (quote input-funbox) "no documentation" "LONSET" (list 0 1000)) (om-load-inputfun (quote input-funbox) "no documentation" "LDUR" (list 1000)) (om-load-inputfun (quote input-funbox) "no documentation" "LVEL" (list 100)) (om-load-inputfun (quote input-funbox) "no documentation" "LOFFSET" (list 0)) (om-load-inputfun (quote input-funbox) "no documentation" "LCHAN" (list 2)) (om-load-inputfun (quote input-funbox) "no documentation" "LEGATO" 0))) (om-make-point 22 239) (om-make-point 226 88) (let ((newobj (when (find-class (quote chord-seq) nil) (make-instance (quote chord-seq) :lmidic (quote ((6556) (6208) (6706) (6004))) :lonset (quote (0 1000 2000 3000 4000)) :ldur (quote ((1000) (1000) (1000) (1000))) :lvel (quote ((100) (100) (100) (100))) :loffset (quote ((0) (0) (0) (0))) :lchan (quote ((2) (2) (2) (2))) :legato 0)))) (load-port-info newobj (quote ((0) (0) (0) (0)))) (init-mus-color newobj (quote nil)) (set-extra-pairs newobj (quote nil)) (set-patch-pairs newobj (quote nil)) (set-name newobj nil) (set-tonalite newobj nil) newobj) nil nil (pairlis (quote (scale approx fontsize staff cmnpref deltapict outport inport zoom notechancolor? grillestep mode winsize winpos palette-mode obj-mode show-stems player)) (list nil 2 24 (quote ggff) (let ((newobj (make-instance (quote edition-values)))) (setf (paper-size newobj) (om-make-point 600 800)) (setf (top-margin newobj) 2) (setf (left-margin newobj) 1) (setf (right-margin newobj) 1) (setf (bottom-margin newobj) 1) (setf (orientation newobj) nil) (setf (scale newobj) nil) (setf (system-space newobj) (quote (1))) (setf (system-color newobj) (quote nil)) (setf (line-space newobj) 1) (setf (title newobj) nil) (setf (show-title? newobj) nil) (setf (show-page? newobj) nil) (setf (sheet-id newobj) nil) (setf (page-mode newobj) nil) newobj) (om-make-point 0 0) 1 0 1 nil 1000 0 18350450 2621450 0 0 (quote t) (quote :microplayer))) t nil nil nil))) (when (fboundp (quote set-active)) (set-active box nil)) box) (let ((box (om-load-boxcall (quote genfun) "inlist" (quote listloop) (quote ((om-load-inputfun (quote input-funbox) "list to iterate" "LIST" nil))) (om-make-point 184 110) nil nil nil nil 1))) (when (fboundp (quote set-active)) (set-active box nil)) box) (let ((box (om-load-boxcall (quote genfun) "collect" (quote listing) (quote ((om-load-inputfun (quote input-funbox) "no documentation" "WHAT?" nil))) (om-make-point 27 327) nil nil nil nil 3))) (when (fboundp (quote set-active)) (set-active box nil)) box) (let ((box (om-load-boxcall (quote genfun) "FLAT" (quote flat) (quote ((om-load-inputfun (quote input-funbox) "one list" "LST" nil))) (om-make-point 102 337) nil nil nil nil 1))) (when (fboundp (quote set-active)) (set-active box nil)) box) (let ((box (om-load-boxin "input2" 2 (om-make-point 229 47) "no documentation" "l_harm_dist" nil nil))) (when (fboundp (quote set-active)) (set-active box nil)) box) (let ((box (om-load-boxin "input1" 1 (om-make-point 70 40) "no documentation" "l_harmonic_transp" nil nil))) (when (fboundp (quote set-active)) (set-active box nil)) box) (let ((box (om-load-boxin "input0" 0 (om-make-point 5 40) "no documentation" "virt_fund" nil nil))) (when (fboundp (quote set-active)) (set-active box nil)) box) (let ((box (om-load-seqbox "finally" (quote finaldo) (quote ((om-load-inputfun (quote input-funbox) "patch" "PATCH" nil))) (om-make-point 142 387) nil nil nil 0))) (when (fboundp (quote set-active)) (set-active box nil)) box) (let ((box (om-load-seqbox "eachTime" (quote loopdo) (quote ((om-load-inputfun (quote input-funbox) "patch" "PATCH" nil))) (om-make-point 12 389) nil nil nil 0))) (when (fboundp (quote set-active)) (set-active box nil)) box)) (quote ((1 0 0 0 nil 0) (9 0 1 0 nil 0) (10 0 2 0 nil 0) (3 0 2 1 nil 0) (5 0 3 0 nil 0) (8 0 3 1 nil 0) (2 0 4 1 nil 0) (0 0 5 0 nil 0) (4 0 6 0 nil 0) (6 1 7 0 nil 0) (7 0 11 0 nil 0) (6 0 12 0 nil 0))) 1 "omloop" nil))) (when (fboundp (quote set-active)) (set-active box nil)) box) (let ((box (om-load-editor-box1 "CHORD-SEQ" (quote chord-seq) (quote ((om-load-inputfun (quote input-funbox) "objs" "SELF" nil) (om-load-inputfun (quote input-funbox) "no documentation" "LMIDIC" (list 6000)) (om-load-inputfun (quote input-funbox) "no documentation" "LONSET" (list 0 1000)) (om-load-inputfun (quote input-funbox) "no documentation" "LDUR" (list 1000)) (om-load-inputfun (quote input-funbox) "no documentation" "LVEL" (list 100)) (om-load-inputfun (quote input-funbox) "no documentation" "LOFFSET" (list 0)) (om-load-inputfun (quote input-funbox) "no documentation" "LCHAN" (list 1)) (om-load-inputfun (quote input-funbox) "no documentation" "LEGATO" 0))) (om-make-point 155 219) (om-make-point 179 154) (let ((newobj (when (find-class (quote chord-seq) nil) (make-instance (quote chord-seq) :lmidic (quote ((7400) (7200) (7500) (7100))) :lonset (quote (0 1000 2000 3000 4000)) :ldur (quote ((1000) (1000) (1000) (1000))) :lvel (quote ((100) (100) (100) (100))) :loffset (quote ((0) (0) (0) (0))) :lchan (quote ((1) (1) (1) (1))) :legato 0)))) (load-port-info newobj (quote ((0) (0) (0) (0)))) (init-mus-color newobj (quote nil)) (set-extra-pairs newobj (quote nil)) (set-patch-pairs newobj (quote nil)) (set-name newobj nil) (set-tonalite newobj nil) newobj) nil nil (pairlis (quote (scale approx fontsize staff cmnpref deltapict outport inport zoom notechancolor? grillestep mode winsize winpos palette-mode obj-mode show-stems player)) (list nil 2 24 (quote ggff) (let ((newobj (make-instance (quote edition-values)))) (setf (paper-size newobj) (om-make-point 600 800)) (setf (top-margin newobj) 2) (setf (left-margin newobj) 1) (setf (right-margin newobj) 1) (setf (bottom-margin newobj) 1) (setf (orientation newobj) nil) (setf (scale newobj) nil) (setf (system-space newobj) (quote (1))) (setf (system-color newobj) (quote nil)) (setf (line-space newobj) 1) (setf (title newobj) nil) (setf (show-title? newobj) nil) (setf (show-page? newobj) nil) (setf (sheet-id newobj) nil) (setf (page-mode newobj) nil) newobj) (om-make-point 0 0) 1 0 1 nil 1000 0 18350450 2621450 0 0 (quote t) (quote :microplayer))) t nil nil nil))) (when (fboundp (quote set-active)) (set-active box nil)) box) (let ((box (om-load-boxcall (quote genfun) "X-APPEND" (quote x-append) (quote ((om-load-inputfun (quote input-funbox) "first list" "L1?" nil) (om-load-inputfun (quote input-funbox) "second list" "L2?" nil) (om-load-inputfun (quote input-funbox) "add list" "LST?" nil))) (om-make-point 25 636) (om-make-point 593 55) nil nil nil 1))) (when (fboundp (quote set-active)) (set-active box nil)) box) (let ((box (om-load-editor-box1 "CHORD-SEQ" (quote chord-seq) (quote ((om-load-inputfun (quote input-funbox) "objs" "SELF" nil) (om-load-inputfun (quote input-funbox) "no documentation" "LMIDIC" (list 6000)) (om-load-inputfun (quote input-funbox) "no documentation" "LONSET" (list 0 1000)) (om-load-inputfun (quote input-funbox) "no documentation" "LDUR" (list 1000)) (om-load-inputfun (quote input-funbox) "no documentation" "LVEL" (list 100)) (om-load-inputfun (quote input-funbox) "no documentation" "LOFFSET" (list 0)) (om-load-inputfun (quote input-funbox) "no documentation" "LCHAN" (list 13)) (om-load-inputfun (quote input-funbox) "no documentation" "LEGATO" 0))) (om-make-point 545 397) (om-make-point 82 207) (let ((newobj (when (find-class (quote chord-seq) nil) (make-instance (quote chord-seq) :lmidic (quote ((2404))) :lonset (quote (0 1000)) :ldur (quote ((1000))) :lvel (quote ((100))) :loffset (quote ((0))) :lchan (quote ((13))) :legato 0)))) (load-port-info newobj (quote ((0)))) (init-mus-color newobj (quote nil)) (set-extra-pairs newobj (quote nil)) (set-patch-pairs newobj (quote ((nil (om-load-patch-abs1 "patch" (quote nil) (quote nil) 6.130002 nil "" (om-make-point 200 200) (om-make-point 400 500)))))) (set-name newobj nil) (set-tonalite newobj nil) newobj) nil nil (pairlis (quote (scale approx fontsize staff cmnpref deltapict outport inport zoom notechancolor? grillestep mode winsize winpos palette-mode obj-mode show-stems player)) (list nil 2 24 (quote ggff) (let ((newobj (make-instance (quote edition-values)))) (setf (paper-size newobj) (om-make-point 600 800)) (setf (top-margin newobj) 2) (setf (left-margin newobj) 1) (setf (right-margin newobj) 1) (setf (bottom-margin newobj) 1) (setf (orientation newobj) nil) (setf (scale newobj) nil) (setf (system-space newobj) (quote (1))) (setf (system-color newobj) (quote nil)) (setf (line-space newobj) 1) (setf (title newobj) nil) (setf (show-title? newobj) nil) (setf (show-page? newobj) nil) (setf (sheet-id newobj) nil) (setf (page-mode newobj) nil) newobj) (om-make-point 0 0) 1 0 1 nil 1000 0 (om-make-point 640 444) (om-make-point 10 40) 0 0 (quote t) (quote :microplayer))) t nil nil nil))) (when (fboundp (quote set-active)) (set-active box nil)) box) (let ((box (om-load-boxcall (quote genfun) "VIRT-FUND" (quote virt-fund) (quote ((om-load-inputfun (quote input-funbox) "pitches" "CHORD" (list 6000)) (om-load-inputfun (quote input-funbox) "approx" "CENTS" 50) (om-load-inputfunmenu1 (quote input-funmenu) "unit" "UNIT" (quote midic) (list (list "Midics" (quote (quote midic))) (list "Freqs" (quote (quote freq))))))) (om-make-point 484 263) nil nil nil nil 1))) (when (fboundp (quote set-active)) (set-active box nil)) box) (let ((box (om-load-boxcall (quote genfun) "HARM-DIST" (quote harm-dist) (quote ((om-load-inputfun (quote input-funbox) "pitches" "CHORD" 6000) (om-load-inputfun (quote input-funbox) "fundamental" "FUND" 2400) (om-load-inputfunmenu1 (quote input-funmenu) "Unit" "UNIT" (quote midic) (list (list "Midics" (quote (quote midic))) (list "Freqs" (quote (quote freq))))))) (om-make-point 408 477) nil nil nil nil 2))) (when (fboundp (quote set-active)) (set-active box nil)) box) (let ((box (om-load-boxcall (quote lispfun) "LIST" (quote list) (quote ((om-load-inputfun (quote input-funbox) "add-input" "add-input" nil))) (om-make-point 530 343) nil nil nil nil 1))) (when (fboundp (quote set-active)) (set-active box nil)) box) (let ((box (om-load-boxcall (quote genfun) "FLAT" (quote flat) (quote ((om-load-inputfun (quote input-funbox) "one list" "LST" nil))) (om-make-point 191 372) nil nil nil nil 1))) (when (fboundp (quote set-active)) (set-active box nil)) box) (let ((box (om-load-boxout "output" 0 (om-make-point 301 703) (quote ((om-load-inputfun (quote input-funbox) "" "out" nil))) nil nil))) (when (fboundp (quote set-active)) (set-active box nil)) box) (let ((box (om-load-boxin "input2" 2 (om-make-point 462 177) "fundamental approx (cents)" "fundamental_approx" 10 nil))) (when (fboundp (quote set-active)) (set-active box nil)) box) (let ((box (om-load-boxin "input1" 1 (om-make-point 270 484) "Harmonic transposition" "harmonic_transposition" 0 nil))) (when (fboundp (quote set-active)) (set-active box nil)) box) (let ((box (om-load-boxin "input" 0 (om-make-point 170 133) "midicent chord list" "lmidicent" (list 6000 6400 6700) nil))) (when (fboundp (quote set-active)) (set-active box nil)) box))) (quote ((8 0 4 0 nil 2) (14 0 4 1 nil 0) (9 1 4 2 nil 0) (15 0 5 1 nil 0) (5 0 6 0 nil 0) (4 0 6 1 nil 0) (7 0 6 2 nil 0) (10 0 7 1 nil 0) (11 0 8 0 nil 1) (13 0 8 1 nil 0) (11 0 9 0 nil 1) (8 0 9 1 nil 2) (8 0 10 0 nil 0) (5 1 11 0 nil 0) (6 0 12 0 nil 0))) 6.130002 nil "" (om-make-point 200 200) (om-make-point 772 810)) (quote ((om-load-inputfun (quote input-funbox) "midicent chord list" "lmidicent" (list 6000 6400 6700)) (om-load-inputfun (quote input-funbox) "Harmonic transposition" "harmonic_transposition" 0) (om-load-inputfun (quote input-funbox) "fundamental approx (cents)" "fundamental_approx" 10))) (om-make-point 342 165) (om-make-point 364 67) nil nil nil))) (when (fboundp (quote set-active)) (set-active box nil)) box) (let ((box (om-load-boxcomment "comment 2" (om-make-point 199 55) (quote "NOTES$Requires the Esquisse library$All abstraction version") "" (om-make-point 10 188) nil (om-make-color 0 0 0) (om-make-font "Verdana" 12 :family "Verdana" :style (quote (:plain)) :mode (quote nil))))) (when (fboundp (quote set-active)) (set-active box nil)) box) (let ((box (om-load-boxcomment "comment221" (om-make-point 126 25) (quote "<- transposition -7") "" (om-make-point 575 354) nil (om-make-color 0 0 0) (om-make-font "Geneva" 10 :family "Geneva" :style (quote (:plain)) :mode (quote nil))))) (when (fboundp (quote set-active)) (set-active box nil)) box) (let ((box (om-load-boxcomment "comment22" (om-make-point 126 25) (quote "<- transposition -3") "" (om-make-point 571 312) nil (om-make-color 0 0 0) (om-make-font "Geneva" 10 :family "Geneva" :style (quote (:plain)) :mode (quote nil))))) (when (fboundp (quote set-active)) (set-active box nil)) box) (let ((box (om-load-boxcomment "comment21" (om-make-point 162 27) (quote "<- deduced fundamental") "" (om-make-point 571 420) nil (om-make-color 0 0 0) (om-make-font "Geneva" 10 :family "Geneva" :style (quote (:plain)) :mode (quote nil))))) (when (fboundp (quote set-active)) (set-active box nil)) box) (let ((box (om-load-boxcomment "comment2" (om-make-point 126 25) (quote "<- original list") "" (om-make-point 574 272) nil (om-make-color 0 0 0) (om-make-font "Geneva" 10 :family "Geneva" :style (quote (:plain)) :mode (quote nil))))) (when (fboundp (quote set-active)) (set-active box nil)) box) (let ((box (om-load-boxcomment "comment1" (om-make-point 83 27) (quote "MIDIcent list") "" (om-make-point 327 136) nil (om-make-color 0 0 0) (om-make-font "Geneva" 10 :family "Geneva" :style (quote (:plain)) :mode (quote nil))))) (when (fboundp (quote set-active)) (set-active box nil)) box) (let ((box (om-load-boxcall (quote bastype) "aux3" (quote t) (quote nil) (om-make-point 468 61) (om-make-point 29 28) 100 "100" nil))) (when (fboundp (quote set-active)) (set-active box nil)) box) (let ((box (om-load-boxcomment "comment" (om-make-point 156 64) (quote "António de Sousa Dias$www.sousadias.com$rev. 2008") "" (om-make-point 10 428) nil (om-make-color 0.018735297 0.025613498 0.51131225) (om-make-font "Verdana" 12 :family "Verdana" :style (quote (:plain)) :mode (quote nil))))) (when (fboundp (quote set-active)) (set-active box nil)) box) (let ((box (om-load-boxcomment "comment" (om-make-point 304 133) (quote "HARMONIC_TRANSPOSITION returns a midicent list of harmonic transpositions from a given chord.$$In the resulting <multi-seq>, the top line is the original list and in the bottom line the deduced fundamental. ") "" (om-make-point 6 44) nil (om-make-color 0 0 0) (om-make-font "Verdana" 12 :family "Verdana" :style (quote (:plain)) :mode (quote nil))))) (when (fboundp (quote set-active)) (set-active box nil)) box) (let ((box (om-load-boxcomment "comment" (om-make-point 145 23) (quote "<- approximation (Cents)") "" (om-make-point 652 114) nil (om-make-color 0 0 0) (om-make-font "Geneva" 10 :family "Geneva" :style (quote (:plain)) :mode (quote nil))))) (when (fboundp (quote set-active)) (set-active box nil)) box) (let ((box (om-load-boxcall (quote bastype) "aux2" (quote t) (quote nil) (om-make-point 608 117) (om-make-point 44 28) 10 "10" nil))) (when (fboundp (quote set-active)) (set-active box nil)) box) (let ((box (om-load-editor-box1 "MULTI-SEQ" (quote multi-seq) (quote ((om-load-inputfun (quote input-funbox) "objs" "SELF" nil) (om-load-inputfun (quote input-funbox) "no documentation" "CHORD-SEQS" (list (let ((newobj (when (find-class (quote chord-seq) nil) (make-instance (quote chord-seq) :lmidic (quote ((6000))) :lonset (quote (0 1000)) :ldur (quote ((1000))) :lvel (quote ((100))) :loffset (quote ((0))) :lchan (quote ((1))) :legato 0)))) (load-port-info newobj (quote ((0)))) (init-mus-color newobj (quote nil)) (set-extra-pairs newobj (quote nil)) (set-patch-pairs newobj (quote nil)) (set-name newobj nil) (set-tonalite newobj nil) newobj))))) (om-make-point 344 237) (om-make-point 221 275) (if (find-class (quote multi-seq) nil) (let ((newobj (make-instance (quote multi-seq) :chord-seqs (list (let ((newobj (when (find-class (quote chord-seq) nil) (make-instance (quote chord-seq) :lmidic (quote ((7400) (7200) (7500) (7100))) :lonset (quote (0 1000 2000 3000 4000)) :ldur (quote ((1000) (1000) (1000) (1000))) :lvel (quote ((100) (100) (100) (100))) :loffset (quote ((0) (0) (0) (0))) :lchan (quote ((1) (1) (1) (1))) :legato 0)))) (load-port-info newobj (quote ((0) (0) (0) (0)))) (init-mus-color newobj (quote nil)) (set-extra-pairs newobj (quote nil)) (set-patch-pairs newobj (quote nil)) (set-name newobj nil) (set-tonalite newobj nil) newobj) (let ((newobj (when (find-class (quote chord-seq) nil) (make-instance (quote chord-seq) :lmidic (quote ((7674) (7502) (7756) (7408))) :lonset (quote (0 1000 2000 3000 4000)) :ldur (quote ((1000) (1000) (1000) (1000))) :lvel (quote ((100) (100) (100) (100))) :loffset (quote ((0) (0) (0) (0))) :lchan (quote ((2) (2) (2) (2))) :legato 0)))) (load-port-info newobj (quote ((0) (0) (0) (0)))) (init-mus-color newobj (quote nil)) (set-extra-pairs newobj (quote nil)) (set-patch-pairs newobj (quote nil)) (set-name newobj nil) (set-tonalite newobj nil) newobj) (let ((newobj (when (find-class (quote chord-seq) nil) (make-instance (quote chord-seq) :lmidic (quote ((6556) (6208) (6706) (6004))) :lonset (quote (0 1000 2000 3000 4000)) :ldur (quote ((1000) (1000) (1000) (1000))) :lvel (quote ((100) (100) (100) (100))) :loffset (quote ((0) (0) (0) (0))) :lchan (quote ((2) (2) (2) (2))) :legato 0)))) (load-port-info newobj (quote ((0) (0) (0) (0)))) (init-mus-color newobj (quote nil)) (set-extra-pairs newobj (quote nil)) (set-patch-pairs newobj (quote nil)) (set-name newobj nil) (set-tonalite newobj nil) newobj) (let ((newobj (when (find-class (quote chord-seq) nil) (make-instance (quote chord-seq) :lmidic (quote ((2404))) :lonset (quote (0 1000)) :ldur (quote ((1000))) :lvel (quote ((100))) :loffset (quote ((0))) :lchan (quote ((13))) :legato 0)))) (load-port-info newobj (quote ((0)))) (init-mus-color newobj (quote nil)) (set-extra-pairs newobj (quote nil)) (set-patch-pairs newobj (quote nil)) (set-name newobj nil) (set-tonalite newobj nil) newobj)) :from-file t))) (load-port-info newobj (quote (((0) (0) (0) (0)) ((0) (0) (0) (0)) ((0) (0) (0) (0)) ((0))))) (init-mus-color newobj (quote nil)) (set-extra-pairs newobj (quote nil)) (set-patch-pairs newobj (quote nil)) (set-name newobj nil) (set-tonalite newobj nil) newobj)) nil nil (pairlis (quote (player approx fontsize staff cmnpref deltapict outport inport zoom notechancolor? grillestep mode winsize winpos palette-mode obj-mode show-stems scale)) (list (quote :microplayer) 2 24 (list (quote g) (quote g) (quote g) (quote ff)) (let ((newobj (make-instance (quote edition-values)))) (setf (paper-size newobj) (om-make-point 600 800)) (setf (top-margin newobj) 2) (setf (left-margin newobj) 1) (setf (right-margin newobj) 1) (setf (bottom-margin newobj) 1) (setf (orientation newobj) nil) (setf (scale newobj) nil) (setf (system-space newobj) (quote (1 1 1 1))) (setf (system-color newobj) (quote nil)) (setf (line-space newobj) 1) (setf (title newobj) nil) (setf (show-title? newobj) nil) (setf (show-page? newobj) nil) (setf (sheet-id newobj) nil) (setf (page-mode newobj) nil) newobj) (om-make-point 0 0) 1 0 1 nil 1000 0 (om-make-point 790 433) (om-make-point 10 40) 0 2 (quote t) nil)) t nil nil nil))) (when (fboundp (quote set-active)) (set-active box nil)) box) (let ((box (om-load-boxcomment "comment" (om-make-point 162 27) (quote "<- harmonic transposition list") "" (om-make-point 588 72) nil (om-make-color 0 0 0) (om-make-font "Geneva" 10 :family "Geneva" :style (quote (:plain)) :mode (quote nil))))) (when (fboundp (quote set-active)) (set-active box nil)) box) (let ((box (om-load-boxcall (quote bastype) "aux1" (quote t) (quote nil) (om-make-point 519 75) (om-make-point 53 30) (list 3 -7) "(3 -7)" nil))) (when (fboundp (quote set-active)) (set-active box nil)) box) (let ((box (om-load-boxcall (quote genfun) "OM*" (quote om*) (quote ((om-load-inputfun (quote input-funbox) "first input" "SELF" 0) (om-load-inputfun (quote input-funbox) "second input" "NUM" 100))) (om-make-point 386 97) (om-make-point 56 35) nil nil nil 1))) (when (fboundp (quote set-active)) (set-active box nil)) box) (let ((box (om-load-boxcall (quote bastype) "aux" (quote t) (quote nil) (om-make-point 329 62) (om-make-point 127 28) (list 74 72 75 71) "(74 72 75 71)" nil))) (when (fboundp (quote set-active)) (set-active box nil)) box))) (quote ((15 0 0 0 nil 0) (14 0 0 1 nil 0) (11 0 0 2 nil 0) (0 0 12 1 nil 0) (16 0 15 0 nil 0) (7 0 15 1 nil 0))) nil 6.130002))